{"glyphs":{"0":{"ha":1246,"x_min":79,"x_max":1165,"o":"m 1142 822 q 1165 706 1165 767 l 1165 300 q 1142 183 1165 239 q 1033 51 1107 100 q 956 14 997 28 q 867 0 914 0 l 378 0 q 289 14 331 0 q 211 51 247 28 q 103 183 138 100 q 79 300 79 239 l 79 706 q 103 822 79 767 q 211 954 138 906 q 289 992 247 978 q 378 1006 331 1006 l 867 1006 q 956 992 914 1006 q 1033 954 997 978 q 1142 822 1107 906 m 972 706 q 954 765 972 736 q 916 799 940 788 q 867 811 892 811 l 378 811 q 328 799 353 811 q 290 765 304 788 q 272 706 272 736 l 272 300 q 290 240 272 269 q 328 206 304 218 q 378 194 353 194 l 867 194 q 916 206 892 194 q 954 240 940 218 q 972 300 972 269 l 972 706 z "},"1":{"ha":742,"x_min":86,"x_max":625,"o":"m 493 954 q 601 822 567 906 q 625 706 625 767 l 625 97 q 597 28 625 57 q 529 0 569 0 q 460 28 489 0 q 432 97 432 57 l 432 706 q 414 765 432 736 q 376 799 400 788 q 326 811 351 811 l 183 811 q 115 840 143 811 q 86 908 86 868 q 115 977 86 949 q 183 1006 143 1006 l 326 1006 q 415 992 374 1006 q 493 954 457 978 z "},"2":{"ha":1064,"x_min":75,"x_max":994,"o":"m 172 0 q 103 28 131 0 q 75 97 75 56 l 75 300 q 125 467 75 393 q 233 564 168 529 q 375 599 299 599 l 694 599 q 754 617 726 599 q 793 664 782 638 q 800 706 800 685 q 782 764 800 738 q 736 803 764 790 q 694 811 717 811 l 172 811 q 103 840 132 811 q 75 908 75 868 q 103 977 75 949 q 172 1006 132 1006 l 694 1006 q 784 992 742 1006 q 863 954 826 978 q 926 896 899 929 q 971 822 954 863 q 994 706 994 767 q 981 616 994 658 q 943 538 967 574 q 838 442 903 478 q 699 406 772 406 l 375 406 q 315 388 342 406 q 281 350 293 374 q 268 300 268 326 l 268 193 l 897 193 q 966 165 938 193 q 994 97 994 138 q 966 28 994 57 q 897 0 938 0 l 172 0 z "},"3":{"ha":1082,"x_min":71,"x_max":1014,"o":"m 935 503 q 990 417 971 463 q 1008 360 1001 389 q 1014 300 1014 331 q 1000 210 1014 253 q 963 132 986 168 q 904 68 938 96 q 831 24 871 40 q 714 0 775 0 l 168 0 q 99 28 128 0 q 71 97 71 57 q 99 165 71 138 q 168 193 128 193 l 714 193 q 772 211 744 193 q 811 258 799 229 q 819 300 819 276 q 801 358 819 331 q 754 397 783 385 q 714 406 735 406 l 319 406 q 251 434 279 406 q 224 503 224 463 q 251 572 224 543 q 319 600 279 600 l 718 600 q 747 605 733 600 q 772 617 761 610 q 811 664 799 635 q 819 706 819 682 q 801 764 819 736 q 754 803 786 789 q 714 811 735 811 l 168 811 q 99 840 128 811 q 71 908 71 868 q 99 977 71 949 q 168 1006 128 1006 l 714 1006 q 803 992 760 1006 q 882 953 846 978 q 990 822 954 904 q 1008 765 1001 794 q 1014 706 1014 736 q 1000 616 1014 658 q 963 538 986 574 q 949 519 956 528 q 935 503 942 511 z "},"4":{"ha":1126,"x_min":68,"x_max":1056,"o":"m 861 419 q 756 400 810 400 l 368 400 q 278 414 321 400 q 200 451 236 428 q 136 509 164 475 q 92 583 108 543 q 68 700 68 638 l 68 908 q 97 977 68 949 q 165 1006 125 1006 q 233 977 206 1006 q 261 908 261 949 l 261 700 q 279 640 261 667 q 326 601 299 614 q 347 596 336 599 q 368 593 357 593 l 756 593 q 814 611 786 593 q 853 658 840 629 q 861 700 861 676 l 861 908 q 890 977 861 949 q 958 1006 918 1006 q 1027 977 999 1006 q 1056 908 1056 949 l 1056 97 q 1027 28 1056 57 q 958 0 999 0 q 890 28 918 0 q 861 97 861 57 l 861 419 z "},"5":{"ha":1064,"x_min":79,"x_max":999,"o":"m 699 0 l 176 0 q 108 28 136 0 q 79 97 79 57 q 108 165 79 138 q 176 193 136 193 l 699 193 q 758 211 731 193 q 792 247 779 226 q 804 296 804 268 q 788 358 804 333 q 749 393 772 381 q 699 406 726 406 l 176 406 q 107 435 136 406 q 79 503 79 460 l 79 908 q 107 976 79 949 q 176 1006 136 1006 l 901 1006 q 970 977 942 1006 q 999 908 999 949 q 970 840 999 868 q 901 811 942 811 l 272 811 l 272 600 l 699 600 q 788 586 746 600 q 867 549 831 572 q 931 490 903 524 q 975 417 958 457 q 999 300 999 361 q 985 210 999 253 q 947 132 971 168 q 890 68 924 96 q 815 24 856 40 q 699 0 761 0 z "},"6":{"ha":1071,"x_min":56,"x_max":1017,"o":"m 919 1006 q 988 978 960 1006 q 1017 910 1017 950 q 988 841 1017 869 q 919 813 960 813 l 351 813 q 304 799 325 813 q 267 765 282 786 q 249 707 249 739 l 249 601 l 717 601 q 777 594 749 601 q 833 576 806 588 q 965 468 917 542 q 1003 390 989 432 q 1017 301 1017 347 q 993 185 1017 240 q 949 111 976 145 q 885 53 921 77 q 717 2 813 2 l 356 2 q 239 25 293 2 q 165 70 199 42 q 107 133 131 97 q 56 301 56 206 l 56 707 q 79 824 56 768 q 124 897 96 864 q 188 956 152 931 q 263 992 222 979 q 349 1006 304 1006 l 919 1006 m 249 407 l 249 301 q 251 280 249 290 q 257 260 254 270 q 297 213 271 231 q 356 195 322 195 l 721 195 q 768 208 747 195 q 804 242 789 221 q 822 306 822 265 q 809 353 822 331 q 776 389 796 375 q 717 407 750 407 l 249 407 z "},"7":{"ha":1064,"x_min":72,"x_max":1033,"o":"m 101 26 q 72 96 72 56 q 97 160 72 132 l 719 817 l 182 817 q 115 844 142 817 q 88 911 88 871 q 115 978 88 951 q 182 1006 142 1006 l 939 1006 q 990 990 967 1006 q 1025 949 1014 975 q 1033 911 1033 929 q 1007 846 1033 875 l 235 29 q 167 0 207 0 q 101 26 128 0 z "},"8":{"ha":1315,"x_min":100,"x_max":1196,"o":"m 400 0 q 283 24 339 0 q 151 132 200 58 q 114 210 128 168 q 100 300 100 253 q 124 417 100 361 q 149 462 135 440 q 179 503 163 483 q 151 538 165 517 q 114 616 128 574 q 100 706 100 658 q 124 822 100 767 q 232 953 160 904 q 400 1004 307 1004 l 903 1004 q 988 990 947 1004 q 1064 953 1029 976 q 1128 896 1100 929 q 1172 822 1156 863 q 1196 706 1196 767 q 1182 616 1196 658 q 1144 538 1168 574 q 1117 503 1131 517 q 1172 417 1151 464 q 1196 300 1196 361 q 1182 210 1196 253 q 1144 132 1168 168 q 1013 24 1096 58 q 896 0 957 0 l 400 0 m 901 599 q 956 617 931 600 q 994 664 983 638 q 1000 684 997 674 q 1003 706 1003 694 q 985 764 1003 736 q 938 803 965 790 q 896 811 918 811 l 400 811 q 358 803 379 811 q 313 764 329 789 q 294 706 294 736 q 303 664 294 682 q 342 617 315 635 q 394 599 367 600 l 901 599 m 896 193 q 956 211 928 193 q 994 258 983 232 q 1000 278 997 268 q 1003 300 1003 289 q 985 358 1003 331 q 938 397 964 386 q 892 406 918 406 l 400 406 q 358 397 379 406 q 313 358 329 383 q 294 300 294 331 q 303 258 294 276 q 342 211 315 229 q 400 193 368 193 l 896 193 z "},"9":{"ha":1071,"x_min":56,"x_max":1017,"o":"m 153 1 q 84 29 113 1 q 56 97 56 57 q 84 166 56 138 q 153 194 113 194 l 721 194 q 769 208 747 194 q 806 242 790 221 q 824 300 824 268 l 824 406 l 356 406 q 295 413 324 406 q 239 431 267 419 q 107 539 156 465 q 69 617 83 575 q 56 706 56 660 q 79 822 56 767 q 124 897 96 863 q 188 954 151 931 q 356 1006 260 1006 l 717 1006 q 833 982 779 1006 q 908 938 874 965 q 965 874 942 910 q 1017 706 1017 801 l 1017 300 q 993 183 1017 239 q 949 110 976 143 q 885 51 921 76 q 809 15 850 28 q 724 1 768 1 l 153 1 m 824 600 l 824 706 q 821 727 824 717 q 815 747 818 738 q 776 794 801 776 q 717 813 750 813 l 351 813 q 304 799 325 813 q 268 765 283 786 q 250 701 250 742 q 263 654 250 676 q 296 618 276 632 q 356 600 322 600 l 824 600 z "}," ":{"ha":450,"x_min":0,"x_max":0,"o":""}," ":{"ha":450,"x_min":0,"x_max":0,"o":""},"E":{"ha":1074,"x_min":100,"x_max":992,"o":"m 293 300 q 323 225 293 256 q 399 194 353 194 l 894 194 q 963 166 935 194 q 992 97 992 138 q 963 28 992 57 q 894 0 935 0 l 399 0 q 285 23 339 0 q 190 86 231 46 q 124 181 149 126 q 100 300 100 236 l 100 706 q 124 824 100 769 q 190 919 149 879 q 285 983 231 960 q 399 1006 339 1006 l 894 1006 q 963 977 935 1006 q 992 908 992 949 q 963 840 992 868 q 894 811 935 811 l 399 811 q 323 780 353 811 q 293 706 293 749 l 293 599 l 889 599 q 958 571 929 599 q 986 503 986 543 q 958 434 986 463 q 889 406 929 406 l 293 406 l 293 300 z "},"F":{"ha":940,"x_min":56,"x_max":897,"o":"m 742 597 q 810 569 782 597 q 839 500 839 540 q 810 431 839 460 q 742 403 782 403 l 250 403 l 250 96 q 222 28 250 56 q 153 0 193 0 q 84 28 113 0 q 56 96 56 56 l 56 907 q 85 975 56 946 q 153 1004 114 1004 l 801 1004 q 869 976 842 1004 q 897 907 897 947 q 869 838 897 867 q 801 810 842 810 l 250 810 l 250 597 l 742 597 l 742 597 z "},"G":{"ha":1104,"x_min":60,"x_max":1001,"o":"m 563 0 q 367 40 458 0 q 207 147 275 79 q 99 307 139 215 q 60 503 60 399 q 99 699 60 607 q 207 858 139 790 q 367 966 275 926 q 563 1006 458 1006 l 906 1006 q 974 977 946 1006 q 1001 908 1001 949 q 974 840 1001 868 q 906 811 946 811 l 563 811 q 442 787 499 811 q 344 721 386 763 q 278 623 303 679 q 254 503 254 567 q 278 383 254 439 q 344 285 303 326 q 442 219 386 243 q 563 194 499 194 l 808 194 l 808 421 q 837 490 808 461 q 906 518 865 518 q 974 490 946 518 q 1001 421 1001 461 l 1001 97 q 974 29 1001 57 q 906 0 946 0 l 563 0 z "},"H":{"ha":1163,"x_min":92,"x_max":1065,"o":"m 969 1004 q 1038 976 1010 1004 q 1065 907 1065 947 l 1065 97 q 1038 28 1065 57 q 969 0 1010 0 q 901 28 929 0 q 872 97 872 57 l 872 404 l 286 404 l 286 97 q 258 28 286 57 q 189 0 229 0 q 120 28 149 0 q 92 97 92 57 l 92 907 q 120 976 92 947 q 189 1004 149 1004 q 258 976 229 1004 q 286 907 286 947 l 286 597 l 872 597 l 872 907 q 901 976 872 947 q 969 1004 929 1004 z "},"I":{"ha":447,"x_min":132,"x_max":325,"o":"m 132 97 l 132 907 q 160 976 132 947 q 229 1004 189 1004 q 297 976 269 1004 q 325 907 325 947 l 325 97 q 297 28 325 57 q 229 0 269 0 q 160 28 189 0 q 132 97 132 57 z "},"J":{"ha":1004,"x_min":56,"x_max":931,"o":"m 188 51 q 79 183 115 100 q 56 300 56 239 q 84 368 56 340 q 153 396 113 396 q 222 368 193 396 q 250 300 250 340 q 268 240 250 264 q 314 201 285 215 q 356 193 332 193 l 632 193 q 690 211 663 193 q 729 258 718 232 q 738 300 738 276 l 738 908 q 766 976 738 949 q 835 1004 794 1004 q 903 976 875 1004 q 931 908 931 949 l 931 300 q 879 132 931 204 q 822 68 856 96 q 749 24 789 40 q 632 0 693 0 l 356 0 q 188 51 263 0 z "},"K":{"ha":1206,"x_min":101,"x_max":1097,"o":"m 1071 151 q 1091 120 1085 138 q 1097 85 1097 103 q 1071 18 1097 44 q 1004 -10 1043 -10 q 938 18 965 -10 l 594 360 l 263 28 q 196 0 235 0 q 160 7 178 0 q 117 42 132 18 q 101 94 101 67 l 101 911 q 128 978 101 951 q 196 1006 156 1006 q 263 978 236 1006 q 290 911 290 951 l 290 324 l 931 963 q 997 990 958 990 q 1064 963 1033 990 q 1092 896 1092 932 q 1064 829 1092 857 l 729 494 l 1071 151 z "},"L":{"ha":911,"x_min":72,"x_max":944,"o":"m 204 51 q 96 183 131 100 q 72 300 72 239 l 72 908 q 100 977 72 949 q 168 1006 128 1006 q 237 977 208 1006 q 265 908 265 949 l 265 300 q 283 240 265 269 q 322 206 297 218 q 371 194 346 194 l 847 194 q 916 166 888 194 q 944 97 944 138 q 916 28 944 57 q 847 0 888 0 l 371 0 q 282 14 324 0 q 204 51 240 28 z "},"M":{"ha":1236,"x_min":68,"x_max":1081,"o":"m 892 94 l 892 676 l 642 426 q 575 399 614 399 q 507 426 535 399 l 257 676 l 257 94 q 230 27 257 54 q 163 0 203 0 q 96 27 124 0 q 68 94 68 54 l 68 906 q 84 957 68 933 q 126 992 100 981 q 164 999 142 999 q 229 972 203 999 l 575 626 l 919 972 q 988 1000 947 1000 q 1022 993 1004 1000 q 1065 958 1050 982 q 1081 906 1081 933 l 1081 94 q 1053 27 1081 54 q 986 0 1026 0 q 919 27 947 0 q 892 94 892 54 z "},"N":{"ha":1157,"x_min":79,"x_max":1069,"o":"m 79 94 l 79 906 q 95 958 79 935 q 138 992 111 981 q 176 1000 156 1000 q 240 972 215 1000 l 881 332 l 881 906 q 908 973 881 946 q 975 1000 936 1000 q 1042 973 1015 1000 q 1069 906 1069 946 l 1069 104 q 1054 52 1069 76 q 1011 17 1039 28 q 976 10 993 10 q 908 38 939 10 l 268 678 l 268 94 q 241 27 268 54 q 174 0 214 0 q 107 27 135 0 q 79 94 79 54 z "},"O":{"ha":1356,"x_min":85,"x_max":1283,"o":"m 588 0 q 390 40 482 0 q 231 148 299 79 q 124 308 163 217 q 85 503 85 400 q 124 700 85 608 q 233 860 164 792 q 393 967 301 928 q 588 1006 485 1006 l 781 1006 q 974 967 882 1006 q 1134 860 1065 928 q 1243 700 1203 792 q 1283 503 1283 608 q 1244 308 1283 399 q 1136 148 1204 217 q 976 40 1068 79 q 781 0 885 0 l 588 0 m 781 194 q 898 218 842 194 q 997 283 954 242 q 1064 380 1039 324 q 1089 503 1089 436 q 1065 621 1089 565 q 1000 719 1042 676 q 902 786 958 761 q 781 811 846 811 l 588 811 q 471 788 526 811 q 373 725 415 765 q 305 628 331 685 q 279 503 279 571 q 303 385 279 442 q 367 287 326 329 q 465 219 408 244 q 588 194 521 194 l 781 194 z "},"P":{"ha":1124,"x_min":79,"x_max":1017,"o":"m 79 97 l 79 907 q 107 975 79 947 q 176 1004 136 1004 l 654 1004 q 763 988 711 1004 q 857 942 814 971 q 989 782 946 882 q 1017 642 1017 715 q 1001 533 1017 585 q 956 439 985 482 q 796 307 896 350 q 654 279 729 279 l 274 279 l 274 97 q 245 28 274 57 q 176 0 217 0 q 108 28 136 0 q 79 97 79 57 m 654 474 q 749 501 708 474 q 804 562 785 525 q 824 642 824 599 q 794 735 824 693 q 721 797 765 776 q 654 810 689 810 l 274 810 l 274 474 l 654 474 z "},"R":{"ha":1236,"x_min":131,"x_max":1106,"o":"m 1078 164 q 1106 94 1106 133 q 1078 26 1106 54 q 1045 5 1063 11 q 1010 -1 1028 -1 q 973 5 990 -1 q 940 26 956 11 l 650 317 l 324 317 l 324 97 q 296 28 324 57 q 228 0 268 0 q 159 28 188 0 q 131 97 131 57 l 131 908 q 158 976 131 949 q 228 1006 188 1006 l 763 1006 q 896 978 833 1006 q 1005 905 958 951 q 1078 795 1051 858 q 1106 661 1106 732 q 1090 560 1106 608 q 1047 469 1075 511 q 981 396 1019 428 q 896 344 942 364 l 1078 164 m 324 511 l 763 511 q 820 523 793 511 q 868 555 847 535 q 901 602 889 575 q 913 661 913 629 q 901 719 913 692 q 868 767 889 747 q 820 799 847 788 q 763 811 793 811 l 324 811 l 324 511 z "},"S":{"ha":1042,"x_min":57,"x_max":976,"o":"m 676 0 l 154 0 q 85 28 114 0 q 57 97 57 57 q 85 165 57 138 q 154 193 114 193 l 676 193 q 736 211 708 193 q 775 258 764 232 q 781 278 778 268 q 783 300 783 289 q 765 358 783 331 q 718 397 744 386 q 676 406 699 406 l 357 406 q 189 457 261 406 q 125 514 153 481 q 81 588 97 547 q 57 706 57 643 q 71 794 57 751 q 108 872 85 836 q 240 981 157 946 q 357 1004 294 1004 l 879 1004 q 948 976 919 1004 q 976 908 976 949 q 948 840 976 868 q 879 811 919 811 l 357 811 q 297 793 324 811 q 258 746 271 775 q 253 726 256 736 q 250 706 250 717 q 268 646 250 672 q 315 607 289 618 q 357 599 333 599 l 676 599 q 844 547 772 599 q 908 490 881 524 q 953 417 936 457 q 976 300 976 361 q 963 210 976 253 q 925 132 949 168 q 793 24 876 58 q 676 0 738 0 z "},"T":{"ha":1161,"x_min":88,"x_max":1093,"o":"m 996 1004 q 1065 976 1036 1004 q 1093 907 1093 947 q 1065 838 1093 867 q 996 810 1036 810 l 686 810 l 686 96 q 658 28 686 56 q 590 0 631 0 q 522 28 550 0 q 493 96 493 56 l 493 810 l 183 810 q 115 838 143 810 q 88 907 88 867 q 115 976 88 947 q 183 1004 143 1004 l 996 1004 z "},"U":{"ha":1157,"x_min":65,"x_max":1074,"o":"m 65 504 l 65 910 q 94 978 65 950 q 163 1007 122 1007 q 231 978 203 1007 q 260 910 260 950 l 260 504 q 284 384 260 440 q 351 285 308 328 q 449 219 393 243 q 569 194 506 194 q 690 219 633 194 q 789 285 747 243 q 856 384 831 328 q 881 504 881 440 l 881 910 q 908 978 881 950 q 976 1007 936 1007 q 1045 978 1017 1007 q 1074 910 1074 950 l 1074 504 q 1034 308 1074 400 q 926 148 994 217 q 766 40 858 79 q 569 0 674 0 q 374 40 465 0 q 213 148 282 79 q 105 308 144 217 q 65 504 65 400 z "},"V":{"ha":1042,"x_min":67,"x_max":1075,"o":"m 256 913 l 256 319 l 914 979 q 981 1007 942 1007 q 1016 1001 999 1007 q 1047 979 1033 994 q 1069 948 1063 965 q 1075 913 1075 931 q 1047 846 1075 874 l 228 24 q 161 -4 200 -4 q 125 3 143 -4 q 83 38 99 14 q 67 90 67 63 l 67 913 q 94 980 67 953 q 161 1007 122 1007 q 228 980 201 1007 q 256 913 256 953 z "},"W":{"ha":2010,"x_min":128,"x_max":2031,"o":"m 2007 972 q 2031 910 2031 944 q 1999 839 2031 868 l 1092 22 q 1029 0 1065 0 q 1010 1 1019 0 q 990 8 1000 3 q 950 43 965 19 q 935 94 935 67 l 935 675 l 289 26 q 258 6 275 13 q 222 0 240 0 q 186 7 200 0 q 143 42 158 18 q 128 94 128 65 l 128 911 q 155 978 128 950 q 222 1006 182 1006 q 290 978 263 1006 q 317 911 317 950 l 317 319 l 964 979 q 1029 1006 992 1006 q 1092 982 1064 1006 q 1124 918 1121 958 l 1124 303 l 1874 982 q 1936 1006 1901 1006 q 2007 972 1978 1006 z "},"X":{"ha":1111,"x_min":51,"x_max":1051,"o":"m 1024 163 q 1051 96 1051 132 q 1024 29 1051 57 q 992 8 1010 14 q 957 1 975 1 q 922 8 939 1 q 890 29 904 14 l 553 367 l 214 29 q 147 1 188 1 q 112 8 129 1 q 81 29 94 14 q 59 60 65 43 q 53 96 53 78 q 81 163 53 135 l 418 500 l 79 839 q 51 906 51 865 q 58 941 51 924 q 79 974 64 958 q 110 994 93 988 q 146 1000 128 1000 q 181 994 164 1000 q 213 974 199 988 l 553 633 l 890 974 q 957 1000 917 1000 q 992 994 975 1000 q 1024 974 1010 988 q 1051 906 1051 943 q 1024 839 1051 867 l 686 500 l 1024 163 z "},"Y":{"ha":1261,"x_min":108,"x_max":1140,"o":"m 1106 958 q 1140 883 1140 928 q 1117 822 1140 850 l 444 35 q 412 10 432 19 q 371 0 392 0 q 308 24 336 0 q 283 58 292 38 q 274 99 274 78 q 296 160 274 133 l 499 396 l 131 825 q 108 888 108 851 q 142 961 108 932 q 203 985 169 985 q 278 950 247 985 l 626 546 l 968 947 q 1043 982 999 982 q 1106 958 1078 982 z "},"a":{"ha":1200,"x_min":72,"x_max":1061,"o":"m 768 1006 q 853 992 813 1006 q 929 956 894 979 q 993 897 965 931 q 1038 824 1021 864 q 1061 707 1061 768 l 1061 301 q 1010 133 1061 206 q 952 69 986 97 q 878 25 918 42 q 761 1 824 1 l 372 1 q 204 53 276 1 q 140 110 168 76 q 96 185 113 144 q 72 301 72 240 q 86 390 72 347 q 124 468 100 432 q 256 576 172 542 q 312 594 283 588 q 372 601 340 601 l 868 601 l 868 707 q 850 765 868 738 q 813 799 835 786 q 765 813 792 813 l 197 813 q 128 841 157 813 q 100 910 100 869 q 128 978 100 950 q 197 1006 157 1006 l 768 1006 m 372 407 q 313 389 339 407 q 280 353 293 375 q 267 306 267 331 q 285 242 267 265 q 321 208 300 221 q 368 194 342 194 l 761 194 q 820 213 794 194 q 857 253 846 231 q 868 301 868 275 l 868 407 l 372 407 z "},"b":{"ha":1042,"x_min":39,"x_max":981,"o":"m 901 501 q 960 408 939 460 q 981 299 981 357 q 967 210 981 253 q 929 132 953 168 q 822 35 889 69 q 681 0 756 0 l 135 0 q 67 28 94 0 q 39 96 39 56 l 39 907 q 67 976 39 949 q 135 1004 94 1004 l 681 1004 q 849 953 774 1004 q 945 846 910 913 q 981 704 981 779 q 959 594 981 646 q 901 501 938 543 m 778 258 q 786 299 786 276 q 769 357 786 331 q 722 397 751 383 q 676 406 703 404 l 454 406 q 385 433 414 406 q 357 501 357 461 q 385 570 357 542 q 454 599 414 599 l 686 599 q 740 617 717 601 q 774 655 761 632 q 786 704 786 678 q 768 764 786 740 q 731 799 753 786 q 681 811 708 811 l 232 811 l 232 193 l 681 193 q 740 210 713 193 q 778 258 767 228 z "},"c":{"ha":1063,"x_min":39,"x_max":981,"o":"m 260 86 q 98 264 157 154 q 39 499 39 374 q 61 652 39 581 q 124 783 83 724 q 220 891 164 844 q 344 965 276 938 q 540 1006 438 1006 l 883 1006 q 952 977 924 1006 q 981 908 981 949 q 952 840 981 868 q 883 811 924 811 l 540 811 q 449 797 492 811 q 368 758 406 783 q 268 648 304 715 q 232 503 232 581 q 246 413 232 456 q 285 332 260 369 q 344 265 310 294 q 421 218 379 236 q 540 194 476 194 l 883 194 q 952 166 924 194 q 981 97 981 138 q 952 28 981 57 q 883 0 924 0 l 540 0 q 391 23 460 0 q 260 86 322 46 z "},"d":{"ha":1215,"x_min":90,"x_max":1164,"o":"m 663 0 l 188 0 q 119 29 149 0 q 90 97 90 58 l 90 908 q 119 976 90 947 q 188 1006 149 1006 l 663 1006 q 811 983 740 1006 q 943 919 882 960 q 1125 699 1065 838 q 1164 503 1164 606 q 1142 353 1164 424 q 1079 222 1119 282 q 982 115 1039 161 q 857 40 925 68 q 763 10 813 21 q 663 0 714 0 m 285 194 l 663 194 q 754 208 711 194 q 835 247 797 222 q 900 307 871 272 q 947 383 929 342 q 971 503 971 439 q 957 595 971 551 q 918 675 943 639 q 782 788 867 751 q 663 811 726 811 l 285 811 l 285 194 z "},"e":{"ha":1150,"x_min":89,"x_max":1068,"o":"m 382 0 q 268 24 321 0 q 175 88 215 47 q 112 183 135 129 q 89 299 89 238 l 89 704 q 139 872 89 799 q 248 969 182 935 q 389 1004 314 1004 l 768 1004 q 885 981 831 1004 q 981 917 940 957 q 1045 822 1022 876 q 1068 704 1068 767 q 1045 592 1068 646 q 983 496 1022 538 q 888 429 943 454 q 768 404 832 404 l 282 404 l 282 299 q 300 240 282 267 q 337 206 315 219 q 385 193 358 193 l 971 193 q 1040 165 1011 193 q 1068 96 1068 136 q 1040 28 1068 56 q 971 0 1011 0 l 382 0 m 768 599 q 811 608 792 599 q 844 631 831 617 q 866 664 858 646 q 874 700 874 682 q 856 764 874 742 q 819 798 840 785 q 772 811 799 811 l 389 811 q 313 779 343 811 q 282 704 282 747 l 282 599 l 768 599 z "},"f":{"ha":981,"x_min":71,"x_max":943,"o":"m 282 765 q 264 706 264 736 l 264 588 l 750 588 q 819 560 790 588 q 847 492 847 532 q 819 423 847 451 q 750 394 790 394 l 264 394 l 264 97 q 235 28 264 57 q 167 0 207 0 q 99 28 126 0 q 71 97 71 57 l 71 706 q 94 822 71 767 q 203 954 129 906 q 281 992 239 978 q 369 1006 322 1006 l 846 1006 q 915 977 886 1006 q 943 908 943 949 q 915 840 943 868 q 846 811 886 811 l 369 811 q 320 799 344 811 q 282 765 296 788 z "},"g":{"ha":1081,"x_min":60,"x_max":1001,"o":"m 563 0 q 367 40 458 0 q 207 147 275 79 q 99 307 139 215 q 60 503 60 399 q 99 699 60 607 q 207 858 139 790 q 367 966 275 926 q 563 1006 458 1006 l 906 1006 q 974 977 946 1006 q 1001 908 1001 949 q 974 840 1001 868 q 906 811 946 811 l 563 811 q 442 787 499 811 q 344 721 386 763 q 278 623 303 679 q 254 503 254 567 q 278 383 254 439 q 344 285 303 326 q 442 219 386 243 q 563 194 499 194 l 808 194 l 808 421 q 837 490 808 461 q 906 518 865 518 q 974 490 946 518 q 1001 421 1001 461 l 1001 97 q 974 29 1001 57 q 906 0 946 0 l 563 0 z "},"h":{"ha":1185,"x_min":132,"x_max":1106,"o":"m 1010 1004 q 1078 976 1050 1004 q 1106 907 1106 947 l 1106 97 q 1078 28 1106 57 q 1010 0 1050 0 q 941 28 969 0 q 913 97 913 57 l 913 404 l 326 404 l 326 97 q 298 28 326 57 q 229 0 269 0 q 160 28 189 0 q 132 97 132 57 l 132 907 q 160 976 132 947 q 229 1004 189 1004 q 298 976 269 1004 q 326 907 326 947 l 326 597 l 913 597 l 913 907 q 941 976 913 947 q 1010 1004 969 1004 z "},"i":{"ha":406,"x_min":89,"x_max":282,"o":"m 89 97 l 89 907 q 117 976 89 947 q 186 1004 146 1004 q 254 976 226 1004 q 282 907 282 947 l 282 97 q 254 28 282 57 q 186 0 226 0 q 117 28 146 0 q 89 97 89 57 z "},"j":{"ha":1086,"x_min":72,"x_max":944,"o":"m 813 51 q 921 183 886 100 q 944 300 944 239 l 944 908 q 917 977 944 949 q 849 1006 889 1006 q 780 977 808 1006 q 751 908 751 949 l 751 300 q 733 240 751 269 q 695 206 719 218 q 646 194 671 194 l 170 194 q 101 166 129 194 q 72 97 72 138 q 101 28 72 57 q 170 0 129 0 l 646 0 q 735 14 693 0 q 813 51 776 28 z "},"k":{"ha":1235,"x_min":110,"x_max":1106,"o":"m 1079 151 q 1099 120 1093 138 q 1106 85 1106 103 q 1079 18 1106 44 q 1013 -10 1051 -10 q 946 18 974 -10 l 603 360 l 271 28 q 204 0 243 0 q 168 7 186 0 q 125 42 140 18 q 110 94 110 67 l 110 911 q 137 978 110 951 q 204 1006 164 1006 q 272 978 244 1006 q 299 911 299 951 l 299 324 l 939 963 q 1006 990 967 990 q 1072 963 1042 990 q 1100 896 1100 932 q 1072 829 1100 857 l 738 494 l 1079 151 z "},"l":{"ha":997,"x_min":72,"x_max":944,"o":"m 204 51 q 96 183 131 100 q 72 300 72 239 l 72 908 q 100 977 72 949 q 168 1006 128 1006 q 237 977 208 1006 q 265 908 265 949 l 265 300 q 283 240 265 269 q 322 206 297 218 q 371 194 346 194 l 847 194 q 916 166 888 194 q 944 97 944 138 q 916 28 944 57 q 847 0 888 0 l 371 0 q 282 14 324 0 q 204 51 240 28 z "},"m":{"ha":1997,"x_min":96,"x_max":1863,"o":"m 1835 978 q 1863 908 1863 950 l 1863 96 q 1835 27 1863 56 q 1767 -1 1807 -1 q 1698 27 1726 -1 q 1669 96 1669 56 l 1669 813 l 1386 813 q 1324 806 1354 813 q 1265 788 1293 799 q 1129 675 1182 753 q 1090 594 1104 638 q 1076 501 1076 550 l 1076 96 q 1048 27 1076 56 q 979 -1 1019 -1 q 910 27 939 -1 q 882 96 882 56 l 882 501 q 868 594 882 550 q 829 675 854 638 q 693 788 776 753 q 635 806 665 799 q 572 813 604 813 l 289 813 l 289 96 q 260 27 289 56 q 192 -1 232 -1 q 124 27 151 -1 q 96 96 96 56 l 96 908 q 124 978 96 950 q 192 1006 151 1006 l 572 1006 q 722 983 651 1006 q 854 919 792 960 q 979 801 928 872 q 1104 919 1033 872 q 1237 983 1167 960 q 1386 1006 1307 1006 l 1767 1006 q 1835 978 1807 1006 z "},"n":{"ha":1208,"x_min":114,"x_max":1122,"o":"m 928 97 l 928 503 q 914 595 928 551 q 875 676 900 639 q 739 789 824 753 q 681 807 711 800 q 618 814 650 814 l 307 814 l 307 97 q 278 28 307 57 q 210 0 250 0 q 142 28 169 0 q 114 97 114 57 l 114 910 q 142 979 114 951 q 210 1007 169 1007 l 618 1007 q 768 984 697 1007 q 900 921 839 961 q 1008 824 961 881 q 1083 699 1054 768 q 1122 503 1122 606 l 1122 97 q 1094 28 1122 57 q 1025 0 1065 0 q 956 28 985 0 q 928 97 928 57 z "},"o":{"ha":1228,"x_min":104,"x_max":1114,"o":"m 328 81 q 144 303 204 164 q 115 397 125 347 q 104 499 104 446 q 127 649 104 578 q 190 781 150 721 q 288 888 232 842 q 413 964 344 935 q 508 994 458 983 q 610 1004 557 1004 q 760 981 689 1004 q 892 917 831 958 q 999 820 953 876 q 1074 696 1046 764 q 1114 499 1114 603 q 1091 349 1114 419 q 1028 217 1068 278 q 931 109 988 156 q 806 35 874 63 q 610 -6 713 -6 q 462 17 533 -6 q 328 81 390 39 m 436 757 q 322 619 358 706 q 299 499 299 564 q 313 406 299 450 q 351 325 326 363 q 412 260 376 289 q 489 213 447 231 q 610 189 544 189 q 702 203 658 189 q 783 242 746 217 q 849 301 819 267 q 896 378 878 336 q 919 499 919 436 q 906 592 919 547 q 867 672 892 636 q 731 786 814 750 q 610 810 672 810 q 517 796 561 810 q 436 757 472 782 z "},"p":{"ha":1117,"x_min":117,"x_max":1054,"o":"m 117 97 l 117 907 q 144 975 117 947 q 214 1004 174 1004 l 692 1004 q 800 988 749 1004 q 894 942 851 971 q 1026 782 983 882 q 1054 642 1054 715 q 1038 533 1054 585 q 993 439 1022 482 q 833 307 933 350 q 692 279 767 279 l 311 279 l 311 97 q 283 28 311 57 q 214 0 254 0 q 145 28 174 0 q 117 97 117 57 m 692 474 q 786 501 746 474 q 842 562 822 525 q 861 642 861 599 q 832 735 861 693 q 758 797 803 776 q 692 810 726 810 l 311 810 l 311 474 l 692 474 z "},"r":{"ha":1061,"x_min":128,"x_max":1000,"o":"m 260 954 q 338 992 296 978 q 426 1006 379 1006 l 903 1006 q 972 977 943 1006 q 1000 908 1000 949 q 972 840 1000 868 q 903 811 943 811 l 426 811 q 377 799 401 811 q 339 765 353 788 q 321 706 321 736 l 321 97 q 292 28 321 57 q 224 0 264 0 q 156 28 183 0 q 128 97 128 57 l 128 706 q 151 822 128 767 q 260 954 186 906 z "},"s":{"ha":1042,"x_min":57,"x_max":976,"o":"m 676 0 l 154 0 q 85 28 114 0 q 57 97 57 57 q 85 165 57 138 q 154 193 114 193 l 676 193 q 736 211 708 193 q 775 258 764 232 q 781 278 778 268 q 783 300 783 289 q 765 358 783 331 q 718 397 744 386 q 676 406 699 406 l 357 406 q 189 457 261 406 q 125 514 153 481 q 81 588 97 547 q 57 706 57 643 q 71 794 57 751 q 108 872 85 836 q 240 981 157 946 q 357 1004 294 1004 l 879 1004 q 948 976 919 1004 q 976 908 976 949 q 948 840 976 868 q 879 811 919 811 l 357 811 q 297 793 324 811 q 258 746 271 775 q 253 726 256 736 q 250 706 250 717 q 268 646 250 672 q 315 607 289 618 q 357 599 333 599 l 676 599 q 844 547 772 599 q 908 490 881 524 q 953 417 936 457 q 976 300 976 361 q 963 210 976 253 q 925 132 949 168 q 793 24 876 58 q 676 0 738 0 z "},"t":{"ha":1031,"x_min":32,"x_max":1038,"o":"m 940 1004 q 1009 976 981 1004 q 1038 907 1038 947 q 1009 838 1038 867 q 940 810 981 810 l 631 810 l 631 96 q 603 28 631 56 q 535 0 575 0 q 466 28 494 0 q 438 96 438 56 l 438 810 l 128 810 q 60 838 88 810 q 32 907 32 867 q 60 976 32 947 q 128 1004 88 1004 l 940 1004 z "},"u":{"ha":1235,"x_min":76,"x_max":1085,"o":"m 271 910 l 271 504 q 285 412 271 456 q 324 331 299 368 q 460 218 375 254 q 518 200 488 207 q 581 193 549 193 l 892 193 l 892 910 q 920 978 892 950 q 989 1007 949 1007 q 1057 978 1029 1007 q 1085 910 1085 950 l 1085 97 q 1057 28 1085 56 q 989 0 1029 0 l 581 0 q 431 23 501 0 q 299 86 360 46 q 191 183 238 126 q 115 308 144 239 q 76 504 76 401 l 76 910 q 105 978 76 950 q 174 1007 133 1007 q 242 978 214 1007 q 271 910 271 950 z "},"v":{"ha":1292,"x_min":78,"x_max":1229,"o":"m 653 0 q 606 12 628 0 q 572 46 585 24 l 92 863 q 78 911 78 888 q 90 956 78 935 q 124 992 101 978 q 172 1006 149 1006 q 217 994 196 1006 q 253 958 239 982 l 653 278 l 1054 960 q 1090 995 1068 983 q 1135 1007 1111 1007 q 1183 993 1158 1007 q 1217 958 1206 979 q 1229 913 1229 936 q 1215 864 1229 886 l 733 46 q 699 12 721 24 q 653 0 678 0 z "},"w":{"ha":1479,"x_min":139,"x_max":1301,"o":"m 1207 1 q 1136 33 1164 1 l 719 506 l 304 33 q 233 1 275 1 q 200 7 215 1 q 156 42 172 18 q 139 96 139 65 l 139 911 q 167 978 139 950 q 233 1006 194 1006 q 301 978 274 1006 q 328 911 328 950 l 328 346 l 649 711 q 719 743 676 743 q 792 711 764 743 l 1113 346 l 1113 911 q 1140 978 1113 950 q 1207 1006 1167 1006 q 1274 978 1246 1006 q 1301 911 1301 950 l 1301 96 q 1285 42 1301 65 q 1240 7 1268 18 q 1207 1 1225 1 z "},"x":{"ha":1111,"x_min":51,"x_max":1051,"o":"m 1024 163 q 1051 96 1051 132 q 1024 29 1051 57 q 992 8 1010 14 q 957 1 975 1 q 922 8 939 1 q 890 29 904 14 l 553 367 l 214 29 q 147 1 188 1 q 112 8 129 1 q 81 29 94 14 q 59 60 65 43 q 53 96 53 78 q 81 163 53 135 l 418 500 l 79 839 q 51 906 51 865 q 58 941 51 924 q 79 974 64 958 q 110 994 93 988 q 146 1000 128 1000 q 181 994 164 1000 q 213 974 199 988 l 553 633 l 890 974 q 957 1000 917 1000 q 992 994 975 1000 q 1024 974 1010 988 q 1051 906 1051 943 q 1024 839 1051 867 l 686 500 l 1024 163 z "},"y":{"ha":1185,"x_min":74,"x_max":1079,"o":"m 982 1007 q 1051 979 1022 1007 q 1079 911 1079 951 l 1079 299 q 1065 210 1079 253 q 1028 132 1051 168 q 896 24 976 57 q 779 0 840 0 l 196 0 q 127 28 156 0 q 99 96 99 56 q 127 165 99 136 q 196 193 156 193 l 779 193 q 838 211 810 193 q 876 258 863 226 q 885 299 885 276 l 885 396 q 779 376 833 376 l 374 376 q 284 390 326 376 q 206 428 242 404 q 142 485 169 451 q 97 560 114 519 q 74 676 74 615 l 74 911 q 102 979 74 951 q 171 1007 131 1007 q 239 979 211 1007 q 267 911 267 951 l 267 676 q 285 617 267 646 q 332 579 306 589 q 374 571 350 571 l 779 571 q 838 589 814 571 q 876 635 863 604 q 885 676 885 653 l 885 911 q 913 979 885 951 q 982 1007 942 1007 z "},"z":{"ha":1042,"x_min":57,"x_max":1004,"o":"m 153 0 q 101 16 125 0 q 65 58 76 32 q 57 94 57 75 q 83 160 57 131 l 690 811 l 153 811 q 85 839 113 811 q 58 906 58 867 q 85 973 58 946 q 153 1000 113 1000 l 910 1000 q 961 985 938 1000 q 996 943 985 969 q 1004 906 1004 924 q 978 842 1004 868 l 372 190 l 910 190 q 976 163 949 190 q 1004 96 1004 135 q 976 28 1004 56 q 910 0 949 0 l 153 0 z "},"D":{"ha":1253,"x_min":90,"x_max":1164,"o":"m 663 0 l 188 0 q 119 29 149 0 q 90 97 90 58 l 90 908 q 119 976 90 947 q 188 1006 149 1006 l 663 1006 q 811 983 740 1006 q 943 919 882 960 q 1125 699 1065 838 q 1164 503 1164 606 q 1142 353 1164 424 q 1079 222 1119 282 q 982 115 1039 161 q 857 40 925 68 q 763 10 813 21 q 663 0 714 0 m 285 194 l 663 194 q 754 208 711 194 q 835 247 797 222 q 900 307 871 272 q 947 383 929 342 q 971 503 971 439 q 957 595 971 551 q 918 675 943 639 q 782 788 867 751 q 663 811 726 811 l 285 811 l 285 194 z "},"?":{"ha":1049,"x_min":65,"x_max":985,"o":"m 686 406 l 338 406 q 269 434 297 406 q 240 503 240 463 q 269 572 240 543 q 338 600 297 600 l 686 600 q 744 618 721 600 q 783 664 769 635 q 792 706 792 682 q 774 764 792 736 q 726 803 756 790 q 686 811 707 811 l 163 811 q 94 840 122 811 q 65 908 65 868 q 94 977 65 949 q 163 1006 122 1006 l 686 1006 q 774 992 732 1006 q 853 954 817 978 q 961 822 928 903 q 985 706 985 767 q 933 538 985 610 q 876 474 910 501 q 803 429 843 446 q 686 406 747 406 m 240 97 l 240 153 q 269 222 240 193 q 338 250 297 250 q 406 222 378 250 q 433 153 433 193 l 433 97 q 406 28 433 57 q 338 0 378 0 q 269 28 297 0 q 240 97 240 57 z "},"!":{"ha":406,"x_min":88,"x_max":281,"o":"m 88 397 l 88 907 q 116 976 88 947 q 185 1004 144 1004 q 253 976 225 1004 q 281 907 281 947 l 281 397 q 253 328 281 357 q 185 300 225 300 q 116 328 144 300 q 88 397 88 357 m 88 97 l 88 153 q 116 222 88 193 q 185 250 144 250 q 253 222 225 250 q 281 153 281 193 l 281 97 q 253 28 281 57 q 185 0 225 0 q 116 28 144 0 q 88 97 88 57 z "},"\"":{"ha":542,"x_min":107,"x_max":433,"o":"m 172 678 q 126 697 144 678 q 107 743 107 715 l 107 935 q 126 982 107 963 q 172 1001 144 1001 q 219 982 200 1001 q 239 935 239 963 l 239 743 q 219 697 239 715 q 172 678 200 678 m 367 678 q 320 697 339 678 q 301 743 301 715 l 301 935 q 320 982 301 963 q 367 1001 339 1001 q 414 982 394 1001 q 433 935 433 963 l 433 743 q 414 697 433 715 q 367 678 394 678 z "},"'":{"ha":349,"x_min":107,"x_max":239,"o":"m 172 678 q 126 697 144 678 q 107 743 107 715 l 107 935 q 126 982 107 963 q 172 1001 144 1001 q 219 982 200 1001 q 239 935 239 963 l 239 743 q 219 697 239 715 q 172 678 200 678 z "},"´":{"ha":196,"x_min":50,"x_max":392,"o":"m 117 1065 q 88 1072 101 1065 q 65 1090 75 1078 q 50 1131 50 1110 q 75 1183 50 1161 l 285 1344 q 325 1358 303 1358 q 378 1333 357 1358 q 392 1293 392 1315 q 367 1240 392 1261 l 157 1079 q 138 1069 149 1072 q 117 1065 128 1065 z "},"ˆ":{"ha":822,"x_min":200,"x_max":653,"o":"m 588 1050 q 540 1069 563 1050 l 426 1185 l 313 1071 q 265 1051 293 1051 q 219 1071 238 1051 q 200 1117 200 1089 q 219 1164 200 1144 l 379 1325 q 426 1344 399 1344 q 474 1325 454 1344 l 635 1164 q 653 1117 653 1144 q 649 1092 653 1104 q 635 1069 644 1079 q 588 1050 615 1050 z "},"ˇ":{"ha":490,"x_min":0,"x_max":0,"o":""},"ƒ":{"ha":1006,"x_min":0,"x_max":0,"o":""},"˚":{"ha":346,"x_min":0,"x_max":0,"o":""},"˜":{"ha":794,"x_min":33,"x_max":768,"o":"m 454 1053 q 413 1069 433 1060 q 369 1093 393 1078 q 319 1118 346 1108 q 267 1128 293 1128 q 217 1119 239 1128 q 194 1110 207 1117 q 168 1097 181 1104 q 145 1081 156 1089 q 131 1069 135 1074 q 89 1051 113 1051 q 51 1067 69 1051 q 33 1107 33 1082 q 50 1144 33 1128 q 105 1188 74 1168 q 178 1224 136 1208 q 219 1234 197 1231 q 267 1238 242 1238 q 306 1235 286 1238 q 346 1225 325 1232 q 431 1186 386 1213 q 533 1151 479 1151 q 582 1158 558 1151 q 626 1176 606 1165 q 656 1197 644 1188 q 671 1208 668 1206 q 711 1226 688 1226 q 749 1213 733 1226 q 767 1174 765 1196 q 750 1135 768 1153 q 715 1103 750 1129 q 676 1079 700 1092 q 624 1056 653 1067 q 581 1044 604 1049 q 533 1040 558 1040 q 454 1053 489 1042 z "},",":{"ha":365,"x_min":88,"x_max":281,"o":"m 88 -1 l 88 153 q 116 222 88 193 q 185 250 144 250 q 253 222 225 250 q 281 153 281 193 l 281 -1 q 253 -70 281 -42 q 185 -99 225 -99 q 116 -70 144 -99 q 88 -1 88 -42 z "},".":{"ha":365,"x_min":88,"x_max":281,"o":"m 88 97 l 88 153 q 116 222 88 193 q 185 250 144 250 q 253 222 225 250 q 281 153 281 193 l 281 97 q 253 28 281 57 q 185 0 225 0 q 116 28 144 0 q 88 97 88 57 z "},":":{"ha":365,"x_min":88,"x_max":281,"o":"m 88 97 l 88 153 q 116 222 88 193 q 185 250 144 250 q 253 222 225 250 q 281 153 281 193 l 281 97 q 253 28 281 57 q 185 0 225 0 q 116 28 144 0 q 88 97 88 57 m 88 514 l 88 569 q 116 638 88 610 q 185 667 144 667 q 253 638 225 667 q 281 569 281 610 l 281 514 q 253 445 281 474 q 185 417 225 417 q 116 445 144 417 q 88 514 88 474 z "},";":{"ha":365,"x_min":88,"x_max":281,"o":"m 88 514 l 88 569 q 116 638 88 610 q 185 667 144 667 q 253 638 225 667 q 281 569 281 610 l 281 514 q 253 445 281 474 q 185 417 225 417 q 116 445 144 417 q 88 514 88 474 m 88 -1 l 88 153 q 116 222 88 193 q 185 250 144 250 q 253 222 225 250 q 281 153 281 193 l 281 -1 q 253 -70 281 -42 q 185 -99 225 -99 q 116 -70 144 -99 q 88 -1 88 -42 z "},"¿":{"ha":1007,"x_min":0,"x_max":0,"o":""},"¡":{"ha":332,"x_min":0,"x_max":0,"o":""},"Ÿ":{"ha":1004,"x_min":0,"x_max":0,"o":""},"œ":{"ha":1933,"x_min":75,"x_max":1826,"o":"m 1729 196 q 1798 167 1769 196 q 1826 99 1826 139 q 1798 31 1826 58 q 1729 3 1769 3 l 1182 3 q 1038 42 1103 3 q 933 146 972 81 q 775 40 863 76 q 681 10 731 21 q 579 0 632 0 q 428 23 500 0 q 297 86 357 46 q 190 184 236 128 q 114 308 143 240 q 75 506 75 403 q 97 656 75 585 q 161 788 119 726 q 258 895 201 849 q 382 969 314 942 q 579 1010 475 1010 q 729 987 658 1010 q 861 924 800 964 q 899 895 881 910 q 933 864 917 881 l 940 875 q 1048 972 982 938 q 1189 1007 1114 1007 l 1526 1007 q 1644 983 1589 1007 q 1740 919 1699 960 q 1803 824 1781 878 q 1826 707 1826 769 q 1804 594 1826 649 q 1742 499 1782 540 q 1647 432 1701 457 q 1526 407 1592 407 l 1082 407 l 1082 301 q 1100 243 1082 269 q 1137 209 1115 222 q 1185 196 1158 196 l 1729 196 m 1082 601 l 1526 601 q 1571 610 1551 601 q 1603 634 1590 619 q 1624 667 1617 649 q 1632 703 1632 685 q 1614 767 1632 744 q 1578 801 1599 788 q 1531 814 1557 814 l 1189 814 q 1113 781 1143 814 q 1082 707 1082 749 l 1082 601 m 865 385 q 889 506 889 440 q 875 598 889 554 q 836 679 861 642 q 776 744 811 715 q 700 792 742 774 q 579 815 642 815 q 486 801 531 815 q 406 763 442 788 q 293 626 329 711 q 268 506 268 569 q 282 413 268 457 q 321 332 296 368 q 458 218 372 254 q 579 194 514 194 q 672 208 628 194 q 753 247 715 222 q 818 308 789 272 q 865 385 847 343 z "},"Œ":{"ha":2176,"x_min":124,"x_max":2019,"o":"m 1922 194 q 1991 166 1963 194 q 2019 97 2019 138 q 1991 28 2019 57 q 1922 0 1963 0 l 1426 0 q 1279 39 1347 0 q 1171 144 1211 78 q 1013 39 1103 78 q 819 0 924 0 l 626 0 q 429 40 521 0 q 269 148 338 79 q 163 308 201 217 q 124 503 124 400 q 163 700 124 608 q 272 860 203 792 q 432 967 340 928 q 626 1006 524 1006 l 819 1006 q 1011 967 921 1006 q 1171 861 1101 929 q 1279 967 1211 928 q 1426 1006 1347 1006 l 1922 1006 q 1991 977 1963 1006 q 2019 908 2019 949 q 1991 840 2019 868 q 1922 811 1963 811 l 1426 811 q 1351 780 1381 811 q 1321 706 1321 749 l 1321 599 l 1917 599 q 1985 571 1957 599 q 2014 503 2014 543 q 1985 434 2014 463 q 1917 406 1957 406 l 1321 406 l 1321 300 q 1351 225 1321 256 q 1426 194 1381 194 l 1922 194 m 819 194 q 937 218 881 194 q 1035 283 993 242 q 1103 380 1078 324 q 1128 503 1128 436 q 1104 621 1128 565 q 1039 719 1081 676 q 941 786 997 761 q 819 811 885 811 l 626 811 q 510 789 565 811 q 412 726 454 767 q 344 628 369 685 q 318 503 318 571 q 342 385 318 442 q 406 287 365 329 q 503 219 447 244 q 626 194 560 194 l 819 194 z "},"Š":{"ha":1013,"x_min":0,"x_max":0,"o":""},"š":{"ha":1013,"x_min":0,"x_max":0,"o":""},"…":{"ha":907,"x_min":88,"x_max":818,"o":"m 88 97 l 88 153 q 116 222 88 193 q 185 250 144 250 q 253 222 225 250 q 281 153 281 193 l 281 97 q 253 28 281 57 q 185 0 225 0 q 116 28 144 0 q 88 97 88 57 m 351 97 l 351 153 q 380 222 351 193 q 449 250 408 250 q 517 222 489 250 q 544 153 544 193 l 544 97 q 517 28 544 57 q 449 0 489 0 q 380 28 408 0 q 351 97 351 57 m 625 97 l 625 153 q 653 222 625 193 q 722 250 682 250 q 790 222 763 250 q 818 153 818 193 l 818 97 q 790 28 818 57 q 722 0 763 0 q 653 28 682 0 q 625 97 625 57 z "},"‚":{"ha":317,"x_min":94,"x_max":226,"o":"m 160 -62 q 113 -44 132 -62 q 94 3 94 -25 l 94 194 q 113 242 94 222 q 160 261 132 261 q 207 242 188 261 q 226 194 226 222 l 226 3 q 207 -44 226 -25 q 160 -62 188 -62 z "},"„":{"ha":533,"x_min":101,"x_max":428,"o":"m 167 -61 q 120 -42 139 -61 q 101 4 101 -24 l 101 196 q 120 243 101 224 q 167 263 139 263 q 214 243 194 263 q 233 196 233 224 l 233 4 q 214 -42 233 -24 q 167 -61 194 -61 m 361 -61 q 315 -42 333 -61 q 296 4 296 -24 l 296 196 q 315 243 296 224 q 361 263 333 263 q 408 243 389 263 q 428 196 428 224 l 428 4 q 408 -42 428 -24 q 361 -61 389 -61 z "},"¸":{"ha":300,"x_min":0,"x_max":0,"o":""},"ž":{"ha":1038,"x_min":0,"x_max":0,"o":""},"Ž":{"ha":1038,"x_min":0,"x_max":0,"o":""},"Z":{"ha":1042,"x_min":57,"x_max":1004,"o":"m 153 0 q 101 16 125 0 q 65 58 76 32 q 57 94 57 75 q 83 160 57 131 l 690 811 l 153 811 q 85 839 113 811 q 58 906 58 867 q 85 973 58 946 q 153 1000 113 1000 l 910 1000 q 961 985 938 1000 q 996 943 985 969 q 1004 906 1004 924 q 978 842 1004 868 l 372 190 l 910 190 q 976 163 949 190 q 1004 96 1004 135 q 976 28 1004 56 q 910 0 949 0 l 153 0 z "},"/":{"ha":1157,"x_min":65,"x_max":1056,"o":"m 93 28 q 72 59 78 42 q 65 94 65 76 q 93 161 65 133 l 894 963 q 926 983 908 976 q 961 989 943 989 q 1028 963 1000 989 q 1056 896 1056 932 q 1028 829 1056 857 l 226 28 q 195 6 213 13 q 160 0 178 0 q 124 6 142 0 q 93 28 107 13 z "},"q":{"ha":1143,"x_min":58,"x_max":1068,"o":"m 1039 158 q 1068 90 1068 129 q 1039 21 1068 50 q 971 -7 1011 -7 q 903 21 931 -7 l 844 79 q 760 33 804 51 q 563 -7 667 -7 q 413 16 485 -7 q 281 79 342 39 q 174 176 221 119 q 99 301 128 233 q 69 395 79 346 q 58 497 58 444 q 81 647 58 576 q 144 779 104 718 q 242 887 186 840 q 367 963 299 933 q 564 1001 461 1001 q 714 978 643 1001 q 846 915 785 956 q 953 819 907 875 q 1028 694 1000 763 q 1068 497 1068 601 q 1045 347 1068 418 q 982 215 1022 276 l 1039 158 m 564 188 q 703 221 640 188 l 606 318 q 576 388 576 347 q 606 456 576 426 q 674 483 633 483 q 742 456 711 483 l 840 357 l 850 376 q 874 497 874 435 q 860 590 874 546 q 821 671 846 633 q 710 772 778 735 q 564 808 642 808 q 471 794 515 808 q 390 756 426 781 q 289 644 325 711 q 253 497 253 576 q 267 405 253 449 q 306 324 281 361 q 417 224 349 260 q 564 188 485 188 z "},"Q":{"ha":1425,"x_min":88,"x_max":1421,"o":"m 1324 1 l 822 1 q 803 0 813 0 q 783 0 793 0 l 590 0 q 440 23 511 0 q 310 86 369 46 q 202 183 249 126 q 128 307 156 239 q 98 401 108 353 q 88 503 88 450 q 110 653 88 582 q 174 783 133 724 q 270 891 214 844 q 394 965 326 938 q 590 1006 488 1006 l 783 1006 q 933 983 863 1006 q 1064 919 1003 960 q 1172 823 1125 879 q 1246 699 1218 767 q 1276 605 1265 654 q 1286 503 1286 556 q 1263 353 1286 424 q 1200 222 1240 283 q 1190 208 1194 215 q 1179 194 1185 201 l 1324 194 q 1392 166 1364 194 q 1421 97 1421 138 q 1392 29 1421 57 q 1324 1 1364 1 m 783 194 q 875 208 832 194 q 956 247 918 222 q 1021 307 992 272 q 1068 383 1050 342 q 1092 503 1092 439 q 1078 595 1092 551 q 1039 675 1064 639 q 903 788 988 751 q 783 811 847 811 l 590 811 q 498 797 542 811 q 418 758 454 783 q 306 624 342 708 q 282 503 282 565 q 296 411 282 454 q 335 331 310 368 q 394 265 360 294 q 471 218 429 236 q 590 194 526 194 l 783 194 z "},"-":{"ha":961,"x_min":89,"x_max":857,"o":"m 186 607 l 760 607 q 828 578 800 607 q 857 510 857 550 q 828 442 857 469 q 760 414 800 414 l 186 414 q 117 442 146 414 q 89 510 89 469 q 117 578 89 550 q 186 607 146 607 z "},"&":{"ha":1157,"x_min":103,"x_max":1046,"o":"m 1017 571 q 1044 503 1044 543 l 1044 300 q 993 132 1044 207 q 936 68 969 96 q 863 24 903 40 q 744 0 807 0 l 403 0 q 313 14 356 0 q 235 51 271 28 q 171 109 199 75 q 126 183 143 143 q 103 300 103 239 q 117 389 103 346 q 154 468 131 432 q 168 486 161 478 q 182 503 175 494 q 126 589 149 539 q 103 706 103 644 q 117 795 103 753 q 154 874 131 838 q 286 982 203 946 q 403 1006 342 1006 l 949 1006 q 1017 977 989 1006 q 1046 908 1046 949 q 1017 840 1046 868 q 949 811 989 811 l 403 811 q 343 793 369 811 q 306 747 317 775 q 297 706 297 728 q 315 646 297 672 q 361 608 333 619 q 403 600 379 600 l 947 600 q 1017 571 988 600 m 843 258 q 851 300 851 276 l 851 406 l 403 406 q 343 388 372 406 q 309 349 321 372 q 297 300 297 326 q 315 240 297 267 q 353 206 331 218 q 403 193 375 193 l 744 193 q 804 211 776 193 q 843 258 831 231 z "},"€":{"ha":1257,"x_min":106,"x_max":1176,"o":"m 1079 194 q 1148 166 1119 194 q 1176 97 1176 138 q 1148 28 1176 57 q 1079 0 1119 0 l 736 0 q 588 23 658 0 q 456 86 517 46 q 285 285 344 163 l 203 285 q 134 313 163 285 q 106 382 106 342 q 134 451 106 422 q 203 479 163 479 l 235 479 l 235 526 l 203 526 q 134 555 163 526 q 106 624 106 583 q 134 692 106 664 q 203 721 163 721 l 285 721 q 321 783 299 751 q 417 891 361 844 q 542 965 474 938 q 635 995 586 985 q 738 1006 685 1006 l 1079 1006 q 1148 977 1119 1006 q 1176 908 1176 949 q 1148 840 1176 868 q 1079 811 1119 811 l 738 811 q 645 797 689 811 q 564 758 601 783 q 518 721 539 742 l 958 721 q 1026 692 999 721 q 1054 624 1054 664 q 1026 555 1054 583 q 958 526 999 526 l 429 526 l 428 503 l 429 479 l 958 479 q 1026 451 999 479 q 1054 382 1054 422 q 1026 313 1054 342 q 958 285 999 285 l 518 285 q 617 218 563 240 q 738 194 675 194 l 1079 194 l 1079 194 z "},"A":{"ha":1175,"x_min":71,"x_max":1061,"o":"m 872 85 l 872 667 l 232 28 q 165 0 204 0 q 130 6 147 0 q 99 28 113 13 q 77 59 83 42 q 71 94 71 76 q 99 161 71 133 l 900 963 q 967 990 928 990 q 1003 983 985 990 q 1045 948 1029 972 q 1061 896 1061 924 l 1061 85 q 1033 17 1061 44 q 967 -10 1006 -10 q 899 17 926 -10 q 872 85 872 44 z "},"B":{"ha":1146,"x_min":126,"x_max":1068,"o":"m 989 501 q 1047 408 1026 460 q 1068 299 1068 357 q 1054 210 1068 253 q 1017 132 1040 168 q 910 35 976 69 q 768 0 843 0 l 222 0 q 154 28 182 0 q 126 96 126 56 l 126 907 q 154 976 126 949 q 222 1004 182 1004 l 768 1004 q 936 953 861 1004 q 1033 846 997 913 q 1068 704 1068 779 q 1047 594 1068 646 q 989 501 1025 543 m 865 258 q 874 299 874 276 q 856 357 874 331 q 810 397 839 383 q 764 406 790 404 l 542 406 q 473 433 501 406 q 444 501 444 461 q 473 570 444 542 q 542 599 501 599 l 774 599 q 828 617 804 601 q 861 655 849 632 q 874 704 874 678 q 856 764 874 740 q 818 799 840 786 q 768 811 796 811 l 319 811 l 319 193 l 768 193 q 827 210 800 193 q 865 258 854 228 z "},"C":{"ha":1085,"x_min":39,"x_max":981,"o":"m 260 86 q 98 264 157 154 q 39 499 39 374 q 61 652 39 581 q 124 783 83 724 q 220 891 164 844 q 344 965 276 938 q 540 1006 438 1006 l 883 1006 q 952 977 924 1006 q 981 908 981 949 q 952 840 981 868 q 883 811 924 811 l 540 811 q 449 797 492 811 q 368 758 406 783 q 268 648 304 715 q 232 503 232 581 q 246 413 232 456 q 285 332 260 369 q 344 265 310 294 q 421 218 379 236 q 540 194 476 194 l 883 194 q 952 166 924 194 q 981 97 981 138 q 952 28 981 57 q 883 0 924 0 l 540 0 q 391 23 460 0 q 260 86 322 46 z "},"$":{"ha":1042,"x_min":57,"x_max":976,"o":"m 676 0 l 154 0 q 85 28 114 0 q 57 97 57 57 q 85 165 57 138 q 154 193 114 193 l 432 193 l 432 406 l 357 406 q 189 457 261 406 q 125 514 153 481 q 81 588 97 547 q 57 706 57 643 q 71 794 57 751 q 108 872 85 836 q 240 981 157 946 q 357 1004 294 1004 l 879 1004 q 948 976 919 1004 q 976 908 976 949 q 948 840 976 868 q 879 811 919 811 l 625 811 l 625 599 l 676 599 q 844 547 772 599 q 908 490 881 524 q 953 417 936 457 q 976 300 976 361 q 963 210 976 253 q 925 132 949 168 q 793 24 876 58 q 676 0 738 0 m 297 793 q 258 746 271 775 q 253 726 256 736 q 250 706 250 717 q 268 646 250 672 q 315 607 289 618 q 357 599 333 599 l 432 599 l 432 811 l 357 811 q 297 793 324 811 m 676 193 q 736 211 708 193 q 775 258 764 232 q 781 278 778 268 q 783 300 783 289 q 765 358 783 331 q 718 397 744 386 q 676 406 699 406 l 625 406 l 625 193 l 676 193 z "},"’":{"ha":333,"x_min":74,"x_max":267,"o":"m 74 757 l 74 911 q 102 980 74 951 q 171 1008 131 1008 q 239 980 211 1008 q 267 911 267 951 l 267 757 q 239 688 267 717 q 171 660 211 660 q 102 688 131 660 q 74 757 74 717 z "},"À":{"ha":1129,"x_min":43,"x_max":1033,"o":"m 844 85 l 844 667 l 204 28 q 138 0 176 0 q 102 6 119 0 q 71 28 85 13 q 49 59 56 42 q 43 94 43 76 q 71 161 43 133 l 872 963 q 939 990 900 990 q 975 983 957 990 q 1017 948 1001 972 q 1033 896 1033 924 l 1033 85 q 1006 17 1033 44 q 939 -10 978 -10 q 872 17 899 -10 q 844 85 844 44 m 686 1065 q 665 1069 675 1065 q 646 1079 654 1072 l 436 1240 q 411 1293 411 1261 q 425 1333 411 1315 q 478 1358 446 1358 q 518 1344 500 1358 l 728 1183 q 753 1131 753 1161 q 738 1090 753 1110 q 686 1065 718 1065 z "},"È":{"ha":1056,"x_min":111,"x_max":1003,"o":"m 304 300 q 334 225 304 256 q 410 194 364 194 l 906 194 q 974 166 946 194 q 1003 97 1003 138 q 974 28 1003 57 q 906 0 946 0 l 410 0 q 296 23 350 0 q 201 86 242 46 q 135 181 160 126 q 111 300 111 236 l 111 706 q 135 824 111 769 q 201 919 160 879 q 296 983 242 960 q 410 1006 350 1006 l 906 1006 q 974 977 946 1006 q 1003 908 1003 949 q 974 840 1003 868 q 906 811 946 811 l 410 811 q 334 780 364 811 q 304 706 304 749 l 304 599 l 900 599 q 969 571 940 599 q 997 503 997 543 q 969 434 997 463 q 900 406 940 406 l 304 406 l 304 300 m 664 1065 q 642 1069 653 1065 q 624 1079 632 1072 l 414 1240 q 389 1293 389 1261 q 403 1333 389 1315 q 456 1358 424 1358 q 496 1344 478 1358 l 706 1183 q 731 1131 731 1161 q 715 1090 731 1110 q 664 1065 696 1065 z "},"Ò":{"ha":1335,"x_min":85,"x_max":1283,"o":"m 588 0 q 390 40 482 0 q 231 148 299 79 q 124 308 163 217 q 85 503 85 400 q 124 700 85 608 q 233 860 164 792 q 393 967 301 928 q 588 1006 485 1006 l 781 1006 q 974 967 882 1006 q 1134 860 1065 928 q 1243 700 1203 792 q 1283 503 1283 608 q 1244 308 1283 399 q 1136 148 1204 217 q 976 40 1068 79 q 781 0 885 0 l 588 0 m 781 194 q 898 218 842 194 q 997 283 954 242 q 1064 380 1039 324 q 1089 503 1089 436 q 1065 621 1089 565 q 1000 719 1042 676 q 902 786 958 761 q 781 811 846 811 l 588 811 q 471 788 526 811 q 373 725 415 765 q 305 628 331 685 q 279 503 279 571 q 303 385 279 442 q 367 287 326 329 q 465 219 408 244 q 588 194 521 194 l 781 194 m 789 1065 q 767 1069 778 1065 q 749 1079 757 1072 l 539 1240 q 514 1293 514 1261 q 528 1333 514 1315 q 581 1358 549 1358 q 621 1344 603 1358 l 831 1183 q 856 1131 856 1161 q 840 1090 856 1110 q 789 1065 821 1065 z "},"­":{"ha":806,"x_min":89,"x_max":676,"o":"m 186 607 l 579 607 q 648 578 619 607 q 676 510 676 550 q 648 442 676 469 q 579 414 619 414 l 186 414 q 117 442 146 414 q 89 510 89 469 q 117 578 89 550 q 186 607 146 607 z "},"è":{"ha":1124,"x_min":89,"x_max":1068,"o":"m 382 0 q 268 24 321 0 q 175 88 215 47 q 112 183 135 129 q 89 299 89 238 l 89 704 q 139 872 89 799 q 248 969 182 935 q 389 1004 314 1004 l 768 1004 q 885 981 831 1004 q 981 917 940 957 q 1045 822 1022 876 q 1068 704 1068 767 q 1045 592 1068 646 q 983 496 1022 538 q 888 429 943 454 q 768 404 832 404 l 282 404 l 282 299 q 300 240 282 267 q 337 206 315 219 q 385 193 358 193 l 971 193 q 1040 165 1011 193 q 1068 96 1068 136 q 1040 28 1068 56 q 971 0 1011 0 l 382 0 m 768 599 q 811 608 792 599 q 844 631 831 617 q 866 664 858 646 q 874 700 874 682 q 856 764 874 742 q 819 798 840 785 q 772 811 799 811 l 389 811 q 313 779 343 811 q 282 704 282 747 l 282 599 l 768 599 m 783 1065 q 762 1069 772 1065 q 743 1079 751 1072 l 533 1240 q 508 1293 508 1261 q 522 1333 508 1315 q 575 1358 543 1358 q 615 1344 597 1358 l 825 1183 q 850 1131 850 1161 q 835 1090 850 1110 q 783 1065 815 1065 z "},"¨":{"ha":999,"x_min":240,"x_max":767,"o":"m 240 1142 l 240 1171 q 269 1240 240 1211 q 338 1268 297 1268 q 406 1240 378 1268 q 433 1171 433 1211 l 433 1142 q 406 1073 433 1101 q 338 1044 378 1044 q 269 1073 297 1044 q 240 1142 240 1101 m 574 1142 l 574 1171 q 602 1240 574 1211 q 671 1268 631 1268 q 739 1240 711 1268 q 767 1171 767 1211 l 767 1142 q 739 1073 767 1101 q 671 1044 711 1044 q 602 1073 631 1044 q 574 1142 574 1101 z "},"Ù":{"ha":1157,"x_min":65,"x_max":1074,"o":"m 65 504 l 65 910 q 94 978 65 950 q 163 1007 122 1007 q 231 978 203 1007 q 260 910 260 950 l 260 504 q 284 384 260 440 q 351 285 308 328 q 449 219 393 243 q 569 194 506 194 q 690 219 633 194 q 789 285 747 243 q 856 384 831 328 q 881 504 881 440 l 881 910 q 908 978 881 950 q 976 1007 936 1007 q 1045 978 1017 1007 q 1074 910 1074 950 l 1074 504 q 1034 308 1074 400 q 926 148 994 217 q 766 40 858 79 q 569 0 674 0 q 374 40 465 0 q 213 148 282 79 q 105 308 144 217 q 65 504 65 400 m 668 1065 q 647 1069 657 1065 q 628 1079 636 1072 l 418 1240 q 393 1293 393 1261 q 407 1333 393 1315 q 460 1358 428 1358 q 500 1344 482 1358 l 710 1183 q 735 1131 735 1161 q 719 1090 735 1110 q 668 1065 700 1065 z "},"à":{"ha":1107,"x_min":68,"x_max":1057,"o":"m 764 1006 q 849 992 808 1006 q 925 956 890 979 q 989 897 961 931 q 1033 824 1017 864 q 1057 707 1057 768 l 1057 301 q 1006 133 1057 206 q 948 69 982 97 q 874 25 914 42 q 757 1 819 1 l 368 1 q 200 53 272 1 q 136 110 164 76 q 92 185 108 144 q 68 301 68 240 q 82 390 68 347 q 119 468 96 432 q 251 576 168 542 q 308 594 279 588 q 368 601 336 601 l 864 601 l 864 707 q 846 765 864 738 q 809 799 831 786 q 761 813 788 813 l 193 813 q 124 841 153 813 q 96 910 96 869 q 124 978 96 950 q 193 1006 153 1006 l 764 1006 m 368 407 q 308 389 335 407 q 276 353 289 375 q 263 306 263 331 q 281 242 263 265 q 317 208 296 221 q 364 194 338 194 l 757 194 q 816 213 790 194 q 853 253 842 231 q 864 301 864 275 l 864 407 l 368 407 m 660 1065 q 638 1069 649 1065 q 619 1079 628 1072 l 410 1240 q 385 1293 385 1261 q 399 1333 385 1315 q 451 1358 419 1358 q 492 1344 474 1358 l 701 1183 q 726 1131 726 1161 q 711 1090 726 1110 q 660 1065 692 1065 z "},"á":{"ha":1107,"x_min":72,"x_max":1061,"o":"m 768 1006 q 853 992 813 1006 q 929 956 894 979 q 993 897 965 931 q 1038 824 1021 864 q 1061 707 1061 768 l 1061 301 q 1010 133 1061 206 q 952 69 986 97 q 878 25 918 42 q 761 1 824 1 l 372 1 q 204 53 276 1 q 140 110 168 76 q 96 185 113 144 q 72 301 72 240 q 86 390 72 347 q 124 468 100 432 q 256 576 172 542 q 312 594 283 588 q 372 601 340 601 l 868 601 l 868 707 q 850 765 868 738 q 813 799 835 786 q 765 813 792 813 l 197 813 q 128 841 157 813 q 100 910 100 869 q 128 978 100 950 q 197 1006 157 1006 l 768 1006 m 372 407 q 313 389 339 407 q 280 353 293 375 q 267 306 267 331 q 285 242 267 265 q 321 208 300 221 q 368 194 342 194 l 761 194 q 820 213 794 194 q 857 253 846 231 q 868 301 868 275 l 868 407 l 372 407 m 585 1065 q 556 1072 569 1065 q 533 1090 543 1078 q 518 1131 518 1110 q 543 1183 518 1161 l 753 1344 q 793 1358 771 1358 q 846 1333 825 1358 q 860 1293 860 1315 q 835 1240 860 1261 l 625 1079 q 606 1069 617 1072 q 585 1065 596 1065 z "},"`":{"ha":694,"x_min":0,"x_max":0,"o":""},"Ú":{"ha":1157,"x_min":65,"x_max":1074,"o":"m 65 504 l 65 910 q 94 978 65 950 q 163 1007 122 1007 q 231 978 203 1007 q 260 910 260 950 l 260 504 q 284 384 260 440 q 351 285 308 328 q 449 219 393 243 q 569 194 506 194 q 690 219 633 194 q 789 285 747 243 q 856 384 831 328 q 881 504 881 440 l 881 910 q 908 978 881 950 q 976 1007 936 1007 q 1045 978 1017 1007 q 1074 910 1074 950 l 1074 504 q 1034 308 1074 400 q 926 148 994 217 q 766 40 858 79 q 569 0 674 0 q 374 40 465 0 q 213 148 282 79 q 105 308 144 217 q 65 504 65 400 m 469 1065 q 441 1072 454 1065 q 418 1090 428 1078 q 403 1131 403 1110 q 428 1183 403 1161 l 638 1344 q 678 1358 656 1358 q 731 1333 710 1358 q 744 1293 744 1315 q 719 1240 744 1261 l 510 1079 q 491 1069 501 1072 q 469 1065 481 1065 z "},"Ý":{"ha":1093,"x_min":108,"x_max":1140,"o":"m 1106 958 q 1140 883 1140 928 q 1117 822 1140 850 l 444 35 q 412 10 432 19 q 371 0 392 0 q 308 24 336 0 q 283 58 292 38 q 274 99 274 78 q 296 160 274 133 l 499 396 l 131 825 q 108 888 108 851 q 142 961 108 932 q 203 985 169 985 q 278 950 247 985 l 626 546 l 968 947 q 1043 982 999 982 q 1106 958 1078 982 m 575 1065 q 547 1072 560 1065 q 524 1090 533 1078 q 508 1131 508 1110 q 533 1183 508 1161 l 743 1344 q 783 1358 761 1358 q 836 1333 815 1358 q 850 1293 850 1315 q 825 1240 850 1261 l 615 1079 q 597 1069 607 1072 q 575 1065 586 1065 z "},"Á":{"ha":1129,"x_min":43,"x_max":1033,"o":"m 844 85 l 844 667 l 204 28 q 138 0 176 0 q 102 6 119 0 q 71 28 85 13 q 49 59 56 42 q 43 94 43 76 q 71 161 43 133 l 872 963 q 939 990 900 990 q 975 983 957 990 q 1017 948 1001 972 q 1033 896 1033 924 l 1033 85 q 1006 17 1033 44 q 939 -10 978 -10 q 872 17 899 -10 q 844 85 844 44 m 593 1065 q 565 1072 578 1065 q 542 1090 551 1078 q 526 1131 526 1110 q 551 1183 526 1161 l 761 1344 q 801 1358 779 1358 q 854 1333 833 1358 q 868 1293 868 1315 q 843 1240 868 1261 l 633 1079 q 615 1069 625 1072 q 593 1065 604 1065 z "},"Í":{"ha":406,"x_min":14,"x_max":356,"o":"m 89 97 l 89 907 q 117 976 89 947 q 186 1004 146 1004 q 254 976 226 1004 q 282 907 282 947 l 282 97 q 254 28 282 57 q 186 0 226 0 q 117 28 146 0 q 89 97 89 57 m 81 1065 q 52 1072 65 1065 q 29 1090 39 1078 q 14 1131 14 1110 q 39 1183 14 1161 l 249 1344 q 289 1358 267 1358 q 342 1333 321 1358 q 356 1293 356 1315 q 331 1240 356 1261 l 121 1079 q 102 1069 113 1072 q 81 1065 92 1065 z "},"Ì":{"ha":406,"x_min":11,"x_max":353,"o":"m 89 97 l 89 907 q 117 976 89 947 q 186 1004 146 1004 q 254 976 226 1004 q 282 907 282 947 l 282 97 q 254 28 282 57 q 186 0 226 0 q 117 28 146 0 q 89 97 89 57 m 286 1065 q 265 1069 275 1065 q 246 1079 254 1072 l 36 1240 q 11 1293 11 1261 q 25 1333 11 1315 q 78 1358 46 1358 q 118 1344 100 1358 l 328 1183 q 353 1131 353 1161 q 338 1090 353 1110 q 286 1065 318 1065 z "},"Ó":{"ha":1335,"x_min":85,"x_max":1283,"o":"m 588 0 q 390 40 482 0 q 231 148 299 79 q 124 308 163 217 q 85 503 85 400 q 124 700 85 608 q 233 860 164 792 q 393 967 301 928 q 588 1006 485 1006 l 781 1006 q 974 967 882 1006 q 1134 860 1065 928 q 1243 700 1203 792 q 1283 503 1283 608 q 1244 308 1283 399 q 1136 148 1204 217 q 976 40 1068 79 q 781 0 885 0 l 588 0 m 781 194 q 898 218 842 194 q 997 283 954 242 q 1064 380 1039 324 q 1089 503 1089 436 q 1065 621 1089 565 q 1000 719 1042 676 q 902 786 958 761 q 781 811 846 811 l 588 811 q 471 788 526 811 q 373 725 415 765 q 305 628 331 685 q 279 503 279 571 q 303 385 279 442 q 367 287 326 329 q 465 219 408 244 q 588 194 521 194 l 781 194 m 574 1065 q 545 1072 558 1065 q 522 1090 532 1078 q 507 1131 507 1110 q 532 1183 507 1161 l 742 1344 q 782 1358 760 1358 q 835 1333 814 1358 q 849 1293 849 1315 q 824 1240 849 1261 l 614 1079 q 595 1069 606 1072 q 574 1065 585 1065 z "},"í":{"ha":406,"x_min":15,"x_max":357,"o":"m 89 97 l 89 907 q 117 976 89 947 q 186 1004 146 1004 q 254 976 226 1004 q 282 907 282 947 l 282 97 q 254 28 282 57 q 186 0 226 0 q 117 28 146 0 q 89 97 89 57 m 82 1065 q 53 1072 67 1065 q 31 1090 40 1078 q 15 1131 15 1110 q 40 1183 15 1161 l 250 1344 q 290 1358 268 1358 q 343 1333 322 1358 q 357 1293 357 1315 q 332 1240 357 1261 l 122 1079 q 103 1069 114 1072 q 82 1065 93 1065 z "},"ì":{"ha":406,"x_min":18,"x_max":360,"o":"m 89 97 l 89 907 q 117 976 89 947 q 186 1004 146 1004 q 254 976 226 1004 q 282 907 282 947 l 282 97 q 254 28 282 57 q 186 0 226 0 q 117 28 146 0 q 89 97 89 57 m 293 1065 q 272 1069 282 1065 q 253 1079 261 1072 l 43 1240 q 18 1293 18 1261 q 32 1333 18 1315 q 85 1358 53 1358 q 125 1344 107 1358 l 335 1183 q 360 1131 360 1161 q 344 1090 360 1110 q 293 1065 325 1065 z "},"ò":{"ha":1139,"x_min":68,"x_max":1078,"o":"m 292 81 q 108 303 168 164 q 78 397 89 347 q 68 499 68 446 q 91 649 68 578 q 154 781 114 721 q 252 888 196 842 q 376 964 308 935 q 472 994 422 983 q 574 1004 521 1004 q 724 981 653 1004 q 856 917 794 958 q 963 820 917 876 q 1038 696 1010 764 q 1078 499 1078 603 q 1055 349 1078 419 q 992 217 1032 278 q 894 109 951 156 q 769 35 838 63 q 574 -6 676 -6 q 426 17 497 -6 q 292 81 354 39 m 400 757 q 286 619 322 706 q 263 499 263 564 q 276 406 263 450 q 315 325 290 363 q 376 260 340 289 q 453 213 411 231 q 574 189 508 189 q 666 203 622 189 q 747 242 710 217 q 813 301 783 267 q 860 378 842 336 q 883 499 883 436 q 869 592 883 547 q 831 672 856 636 q 694 786 778 750 q 574 810 636 810 q 481 796 525 810 q 400 757 436 782 m 806 1065 q 784 1069 794 1065 q 765 1079 774 1072 l 556 1240 q 531 1293 531 1261 q 544 1333 531 1315 q 597 1358 565 1358 q 638 1344 619 1358 l 847 1183 q 872 1131 872 1161 q 857 1090 872 1110 q 806 1065 838 1065 z "},"ó":{"ha":1139,"x_min":68,"x_max":1078,"o":"m 292 81 q 108 303 168 164 q 78 397 89 347 q 68 499 68 446 q 91 649 68 578 q 154 781 114 721 q 252 888 196 842 q 376 964 308 935 q 472 994 422 983 q 574 1004 521 1004 q 724 981 653 1004 q 856 917 794 958 q 963 820 917 876 q 1038 696 1010 764 q 1078 499 1078 603 q 1055 349 1078 419 q 992 217 1032 278 q 894 109 951 156 q 769 35 838 63 q 574 -6 676 -6 q 426 17 497 -6 q 292 81 354 39 m 400 757 q 286 619 322 706 q 263 499 263 564 q 276 406 263 450 q 315 325 290 363 q 376 260 340 289 q 453 213 411 231 q 574 189 508 189 q 666 203 622 189 q 747 242 710 217 q 813 301 783 267 q 860 378 842 336 q 883 499 883 436 q 869 592 883 547 q 831 672 856 636 q 694 786 778 750 q 574 810 636 810 q 481 796 525 810 q 400 757 436 782 m 597 1065 q 569 1072 582 1065 q 546 1090 556 1078 q 531 1131 531 1110 q 556 1183 531 1161 l 765 1344 q 806 1358 783 1358 q 858 1333 838 1358 q 872 1293 872 1315 q 847 1240 872 1261 l 638 1079 q 619 1069 629 1072 q 597 1065 608 1065 z "},"ù":{"ha":1165,"x_min":76,"x_max":1085,"o":"m 271 910 l 271 504 q 285 412 271 456 q 324 331 299 368 q 460 218 375 254 q 518 200 488 207 q 581 193 549 193 l 892 193 l 892 910 q 920 978 892 950 q 989 1007 949 1007 q 1057 978 1029 1007 q 1085 910 1085 950 l 1085 97 q 1057 28 1085 56 q 989 0 1029 0 l 581 0 q 431 23 501 0 q 299 86 360 46 q 191 183 238 126 q 115 308 144 239 q 76 504 76 401 l 76 910 q 105 978 76 950 q 174 1007 133 1007 q 242 978 214 1007 q 271 910 271 950 m 668 1056 l 450 1182 q 425 1224 425 1196 q 432 1249 425 1235 q 450 1266 439 1260 q 474 1272 461 1272 q 499 1265 485 1272 l 717 1140 q 740 1099 740 1125 q 733 1074 740 1088 q 715 1056 726 1063 q 690 1050 703 1050 q 668 1056 678 1050 z "},"ú":{"ha":1165,"x_min":76,"x_max":1085,"o":"m 271 910 l 271 504 q 285 412 271 456 q 324 331 299 368 q 460 218 375 254 q 518 200 488 207 q 581 193 549 193 l 892 193 l 892 910 q 920 978 892 950 q 989 1007 949 1007 q 1057 978 1029 1007 q 1085 910 1085 950 l 1085 97 q 1057 28 1085 56 q 989 0 1029 0 l 581 0 q 431 23 501 0 q 299 86 360 46 q 191 183 238 126 q 115 308 144 239 q 76 504 76 401 l 76 910 q 105 978 76 950 q 174 1007 133 1007 q 242 978 214 1007 q 271 910 271 950 m 497 1056 q 475 1050 488 1050 q 451 1056 463 1050 q 432 1074 439 1063 q 425 1099 425 1088 q 449 1140 425 1125 l 667 1265 q 692 1272 681 1272 q 715 1266 704 1272 q 733 1249 726 1260 q 740 1224 740 1235 q 715 1182 740 1196 l 497 1056 z "},"ä":{"ha":1107,"x_min":72,"x_max":1061,"o":"m 768 1006 q 853 992 813 1006 q 929 956 894 979 q 993 897 965 931 q 1038 824 1021 864 q 1061 707 1061 768 l 1061 301 q 1010 133 1061 206 q 952 69 986 97 q 878 25 918 42 q 761 1 824 1 l 372 1 q 204 53 276 1 q 140 110 168 76 q 96 185 113 144 q 72 301 72 240 q 86 390 72 347 q 124 468 100 432 q 256 576 172 542 q 312 594 283 588 q 372 601 340 601 l 868 601 l 868 707 q 850 765 868 738 q 813 799 835 786 q 765 813 792 813 l 197 813 q 128 841 157 813 q 100 910 100 869 q 128 978 100 950 q 197 1006 157 1006 l 768 1006 m 372 407 q 313 389 339 407 q 280 353 293 375 q 267 306 267 331 q 285 242 267 265 q 321 208 300 221 q 368 194 342 194 l 761 194 q 820 213 794 194 q 857 253 846 231 q 868 301 868 275 l 868 407 l 372 407 m 290 1142 l 290 1171 q 319 1240 290 1211 q 388 1268 347 1268 q 456 1240 428 1268 q 483 1171 483 1211 l 483 1142 q 456 1073 483 1101 q 388 1044 428 1044 q 319 1073 347 1044 q 290 1142 290 1101 m 624 1142 l 624 1171 q 652 1240 624 1211 q 721 1268 681 1268 q 789 1240 761 1268 q 817 1171 817 1211 l 817 1142 q 789 1073 817 1101 q 721 1044 761 1044 q 652 1073 681 1044 q 624 1142 624 1101 z "},"ë":{"ha":1124,"x_min":89,"x_max":1068,"o":"m 382 0 q 268 24 321 0 q 175 88 215 47 q 112 183 135 129 q 89 299 89 238 l 89 704 q 139 872 89 799 q 248 969 182 935 q 389 1004 314 1004 l 768 1004 q 885 981 831 1004 q 981 917 940 957 q 1045 822 1022 876 q 1068 704 1068 767 q 1045 592 1068 646 q 983 496 1022 538 q 888 429 943 454 q 768 404 832 404 l 282 404 l 282 299 q 300 240 282 267 q 337 206 315 219 q 385 193 358 193 l 971 193 q 1040 165 1011 193 q 1068 96 1068 136 q 1040 28 1068 56 q 971 0 1011 0 l 382 0 m 768 599 q 811 608 792 599 q 844 631 831 617 q 866 664 858 646 q 874 700 874 682 q 856 764 874 742 q 819 798 840 785 q 772 811 799 811 l 389 811 q 313 779 343 811 q 282 704 282 747 l 282 599 l 768 599 m 299 1142 l 299 1171 q 327 1240 299 1211 q 396 1268 356 1268 q 464 1240 436 1268 q 492 1171 492 1211 l 492 1142 q 464 1073 492 1101 q 396 1044 436 1044 q 327 1073 356 1044 q 299 1142 299 1101 m 632 1142 l 632 1171 q 660 1240 632 1211 q 729 1268 689 1268 q 797 1240 769 1268 q 825 1171 825 1211 l 825 1142 q 797 1073 825 1101 q 729 1044 769 1044 q 660 1073 689 1044 q 632 1142 632 1101 z "},"ï":{"ha":406,"x_min":-57,"x_max":469,"o":"m 89 97 l 89 907 q 117 976 89 947 q 186 1004 146 1004 q 254 976 226 1004 q 282 907 282 947 l 282 97 q 254 28 282 57 q 186 0 226 0 q 117 28 146 0 q 89 97 89 57 m -57 1142 l -57 1171 q -28 1240 -57 1211 q 40 1268 0 1268 q 108 1240 81 1268 q 136 1171 136 1211 l 136 1142 q 108 1073 136 1101 q 40 1044 81 1044 q -28 1073 0 1044 q -57 1142 -57 1101 m 276 1142 l 276 1171 q 305 1240 276 1211 q 374 1268 333 1268 q 442 1240 414 1268 q 469 1171 469 1211 l 469 1142 q 442 1073 469 1101 q 374 1044 414 1044 q 305 1073 333 1044 q 276 1142 276 1101 z "},"ö":{"ha":1139,"x_min":68,"x_max":1078,"o":"m 292 81 q 108 303 168 164 q 78 397 89 347 q 68 499 68 446 q 91 649 68 578 q 154 781 114 721 q 252 888 196 842 q 376 964 308 935 q 472 994 422 983 q 574 1004 521 1004 q 724 981 653 1004 q 856 917 794 958 q 963 820 917 876 q 1038 696 1010 764 q 1078 499 1078 603 q 1055 349 1078 419 q 992 217 1032 278 q 894 109 951 156 q 769 35 838 63 q 574 -6 676 -6 q 426 17 497 -6 q 292 81 354 39 m 400 757 q 286 619 322 706 q 263 499 263 564 q 276 406 263 450 q 315 325 290 363 q 376 260 340 289 q 453 213 411 231 q 574 189 508 189 q 666 203 622 189 q 747 242 710 217 q 813 301 783 267 q 860 378 842 336 q 883 499 883 436 q 869 592 883 547 q 831 672 856 636 q 694 786 778 750 q 574 810 636 810 q 481 796 525 810 q 400 757 436 782 m 306 1142 l 306 1171 q 334 1240 306 1211 q 403 1268 363 1268 q 471 1240 443 1268 q 499 1171 499 1211 l 499 1142 q 471 1073 499 1101 q 403 1044 443 1044 q 334 1073 363 1044 q 306 1142 306 1101 m 639 1142 l 639 1171 q 667 1240 639 1211 q 736 1268 696 1268 q 804 1240 776 1268 q 832 1171 832 1211 l 832 1142 q 804 1073 832 1101 q 736 1044 776 1044 q 667 1073 696 1044 q 639 1142 639 1101 z "},"Ü":{"ha":1157,"x_min":65,"x_max":1074,"o":"m 65 504 l 65 910 q 94 978 65 950 q 163 1007 122 1007 q 231 978 203 1007 q 260 910 260 950 l 260 504 q 284 384 260 440 q 351 285 308 328 q 449 219 393 243 q 569 194 506 194 q 690 219 633 194 q 789 285 747 243 q 856 384 831 328 q 881 504 881 440 l 881 910 q 908 978 881 950 q 976 1007 936 1007 q 1045 978 1017 1007 q 1074 910 1074 950 l 1074 504 q 1034 308 1074 400 q 926 148 994 217 q 766 40 858 79 q 569 0 674 0 q 374 40 465 0 q 213 148 282 79 q 105 308 144 217 q 65 504 65 400 m 315 1142 l 315 1171 q 344 1240 315 1211 q 413 1268 372 1268 q 481 1240 453 1268 q 508 1171 508 1211 l 508 1142 q 481 1073 508 1101 q 413 1044 453 1044 q 344 1073 372 1044 q 315 1142 315 1101 m 649 1142 l 649 1171 q 677 1240 649 1211 q 746 1268 706 1268 q 814 1240 786 1268 q 842 1171 842 1211 l 842 1142 q 814 1073 842 1101 q 746 1044 786 1044 q 677 1073 706 1044 q 649 1142 649 1101 z "},"Ë":{"ha":1056,"x_min":111,"x_max":1003,"o":"m 304 300 q 334 225 304 256 q 410 194 364 194 l 906 194 q 974 166 946 194 q 1003 97 1003 138 q 974 28 1003 57 q 906 0 946 0 l 410 0 q 296 23 350 0 q 201 86 242 46 q 135 181 160 126 q 111 300 111 236 l 111 706 q 135 824 111 769 q 201 919 160 879 q 296 983 242 960 q 410 1006 350 1006 l 906 1006 q 974 977 946 1006 q 1003 908 1003 949 q 974 840 1003 868 q 906 811 946 811 l 410 811 q 334 780 364 811 q 304 706 304 749 l 304 599 l 900 599 q 969 571 940 599 q 997 503 997 543 q 969 434 997 463 q 900 406 940 406 l 304 406 l 304 300 m 264 1142 l 264 1171 q 292 1240 264 1211 q 361 1268 321 1268 q 429 1240 401 1268 q 457 1171 457 1211 l 457 1142 q 429 1073 457 1101 q 361 1044 401 1044 q 292 1073 321 1044 q 264 1142 264 1101 m 597 1142 l 597 1171 q 626 1240 597 1211 q 694 1268 654 1268 q 763 1240 735 1268 q 790 1171 790 1211 l 790 1142 q 763 1073 790 1101 q 694 1044 735 1044 q 626 1073 654 1044 q 597 1142 597 1101 z "},"Ä":{"ha":1129,"x_min":43,"x_max":1044,"o":"m 844 85 l 844 667 l 204 28 q 138 0 176 0 q 102 6 119 0 q 71 28 85 13 q 49 59 56 42 q 43 94 43 76 q 71 161 43 133 l 872 963 q 939 990 900 990 q 975 983 957 990 q 1017 948 1001 972 q 1033 896 1033 924 l 1033 85 q 1006 17 1033 44 q 939 -10 978 -10 q 872 17 899 -10 q 844 85 844 44 m 518 1142 l 518 1171 q 547 1240 518 1211 q 615 1268 575 1268 q 683 1240 656 1268 q 711 1171 711 1211 l 711 1142 q 683 1073 711 1101 q 615 1044 656 1044 q 547 1073 575 1044 q 518 1142 518 1101 m 851 1142 l 851 1171 q 880 1240 851 1211 q 949 1268 908 1268 q 1017 1240 989 1268 q 1044 1171 1044 1211 l 1044 1142 q 1017 1073 1044 1101 q 949 1044 989 1044 q 880 1073 908 1044 q 851 1142 851 1101 z "},"ÿ":{"ha":1163,"x_min":74,"x_max":1079,"o":"m 982 1007 q 1051 979 1022 1007 q 1079 911 1079 951 l 1079 299 q 1065 210 1079 253 q 1028 132 1051 168 q 896 24 976 57 q 779 0 840 0 l 196 0 q 127 28 156 0 q 99 96 99 56 q 127 165 99 136 q 196 193 156 193 l 779 193 q 838 211 810 193 q 876 258 863 226 q 885 299 885 276 l 885 396 q 779 376 833 376 l 374 376 q 284 390 326 376 q 206 428 242 404 q 142 485 169 451 q 97 560 114 519 q 74 676 74 615 l 74 911 q 102 979 74 951 q 171 1007 131 1007 q 239 979 211 1007 q 267 911 267 951 l 267 676 q 285 617 267 646 q 332 579 306 589 q 374 571 350 571 l 779 571 q 838 589 814 571 q 876 635 863 604 q 885 676 885 653 l 885 911 q 913 979 885 951 q 982 1007 942 1007 m 318 1142 l 318 1171 q 347 1240 318 1211 q 415 1268 375 1268 q 483 1240 456 1268 q 511 1171 511 1211 l 511 1142 q 483 1073 511 1101 q 415 1044 456 1044 q 347 1073 375 1044 q 318 1142 318 1101 m 651 1142 l 651 1171 q 680 1240 651 1211 q 749 1268 708 1268 q 817 1240 789 1268 q 844 1171 844 1211 l 844 1142 q 817 1073 844 1101 q 749 1044 789 1044 q 680 1073 708 1044 q 651 1142 651 1101 z "},"ü":{"ha":1165,"x_min":76,"x_max":1085,"o":"m 271 910 l 271 504 q 285 412 271 456 q 324 331 299 368 q 460 218 375 254 q 518 200 488 207 q 581 193 549 193 l 892 193 l 892 910 q 920 978 892 950 q 989 1007 949 1007 q 1057 978 1029 1007 q 1085 910 1085 950 l 1085 97 q 1057 28 1085 56 q 989 0 1029 0 l 581 0 q 431 23 501 0 q 299 86 360 46 q 191 183 238 126 q 115 308 144 239 q 76 504 76 401 l 76 910 q 105 978 76 950 q 174 1007 133 1007 q 242 978 214 1007 q 271 910 271 950 m 319 1142 l 319 1171 q 348 1240 319 1211 q 417 1268 376 1268 q 485 1240 457 1268 q 513 1171 513 1211 l 513 1142 q 485 1073 513 1101 q 417 1044 457 1044 q 348 1073 376 1044 q 319 1142 319 1101 m 653 1142 l 653 1171 q 681 1240 653 1211 q 750 1268 710 1268 q 818 1240 790 1268 q 846 1171 846 1211 l 846 1142 q 818 1073 846 1101 q 750 1044 790 1044 q 681 1073 710 1044 q 653 1142 653 1101 z "},"é":{"ha":1124,"x_min":89,"x_max":1068,"o":"m 382 0 q 268 24 321 0 q 175 88 215 47 q 112 183 135 129 q 89 299 89 238 l 89 704 q 139 872 89 799 q 248 969 182 935 q 389 1004 314 1004 l 768 1004 q 885 981 831 1004 q 981 917 940 957 q 1045 822 1022 876 q 1068 704 1068 767 q 1045 592 1068 646 q 983 496 1022 538 q 888 429 943 454 q 768 404 832 404 l 282 404 l 282 299 q 300 240 282 267 q 337 206 315 219 q 385 193 358 193 l 971 193 q 1040 165 1011 193 q 1068 96 1068 136 q 1040 28 1068 56 q 971 0 1011 0 l 382 0 m 768 599 q 811 608 792 599 q 844 631 831 617 q 866 664 858 646 q 874 700 874 682 q 856 764 874 742 q 819 798 840 785 q 772 811 799 811 l 389 811 q 313 779 343 811 q 282 704 282 747 l 282 599 l 768 599 m 590 1065 q 562 1072 575 1065 q 539 1090 549 1078 q 524 1131 524 1110 q 549 1183 524 1161 l 758 1344 q 799 1358 776 1358 q 851 1333 831 1358 q 865 1293 865 1315 q 840 1240 865 1261 l 631 1079 q 612 1069 622 1072 q 590 1065 601 1065 z "},"Ö":{"ha":1335,"x_min":85,"x_max":1283,"o":"m 588 0 q 390 40 482 0 q 231 148 299 79 q 124 308 163 217 q 85 503 85 400 q 124 700 85 608 q 233 860 164 792 q 393 967 301 928 q 588 1006 485 1006 l 781 1006 q 974 967 882 1006 q 1134 860 1065 928 q 1243 700 1203 792 q 1283 503 1283 608 q 1244 308 1283 399 q 1136 148 1204 217 q 976 40 1068 79 q 781 0 885 0 l 588 0 m 781 194 q 898 218 842 194 q 997 283 954 242 q 1064 380 1039 324 q 1089 503 1089 436 q 1065 621 1089 565 q 1000 719 1042 676 q 902 786 958 761 q 781 811 846 811 l 588 811 q 471 788 526 811 q 373 725 415 765 q 305 628 331 685 q 279 503 279 571 q 303 385 279 442 q 367 287 326 329 q 465 219 408 244 q 588 194 521 194 l 781 194 m 404 1142 l 404 1171 q 433 1240 404 1211 q 501 1268 461 1268 q 569 1240 542 1268 q 597 1171 597 1211 l 597 1142 q 569 1073 597 1101 q 501 1044 542 1044 q 433 1073 461 1044 q 404 1142 404 1101 m 738 1142 l 738 1171 q 766 1240 738 1211 q 835 1268 794 1268 q 903 1240 875 1268 q 931 1171 931 1211 l 931 1142 q 903 1073 931 1101 q 835 1044 875 1044 q 766 1073 794 1044 q 738 1142 738 1101 z "},"Æ":{"ha":1817,"x_min":42,"x_max":1715,"o":"m 1036 300 q 1054 240 1036 269 q 1092 206 1068 218 q 1142 194 1117 194 l 1618 194 q 1687 166 1658 194 q 1715 97 1715 138 q 1687 28 1715 57 q 1618 0 1658 0 l 1142 0 q 1053 14 1094 0 q 975 51 1011 28 q 867 183 901 100 q 843 300 843 239 l 843 667 l 203 28 q 136 0 175 0 q 101 6 118 0 q 69 28 83 13 q 48 59 54 42 q 42 94 42 76 q 69 161 42 133 l 871 963 q 938 990 899 990 q 974 983 956 990 q 997 968 986 978 q 1065 996 1029 986 q 1142 1006 1101 1006 l 1618 1006 q 1687 977 1658 1006 q 1715 908 1715 949 q 1687 840 1715 868 q 1618 811 1658 811 l 1142 811 q 1092 799 1117 811 q 1054 765 1068 788 q 1036 706 1036 736 l 1036 599 l 1613 599 q 1681 571 1653 599 q 1710 503 1710 543 q 1681 434 1710 463 q 1613 406 1653 406 l 1036 406 l 1036 300 z "},"É":{"ha":1056,"x_min":93,"x_max":985,"o":"m 286 300 q 316 225 286 256 q 392 194 346 194 l 888 194 q 956 166 928 194 q 985 97 985 138 q 956 28 985 57 q 888 0 928 0 l 392 0 q 278 23 332 0 q 183 86 224 46 q 117 181 142 126 q 93 300 93 236 l 93 706 q 117 824 93 769 q 183 919 142 879 q 278 983 224 960 q 392 1006 332 1006 l 888 1006 q 956 977 928 1006 q 985 908 985 949 q 956 840 985 868 q 888 811 928 811 l 392 811 q 316 780 346 811 q 286 706 286 749 l 286 599 l 882 599 q 951 571 922 599 q 979 503 979 543 q 951 434 979 463 q 882 406 922 406 l 286 406 l 286 300 m 569 1065 q 541 1072 554 1065 q 518 1090 528 1078 q 503 1131 503 1110 q 528 1183 503 1161 l 738 1344 q 778 1358 756 1358 q 831 1333 810 1358 q 844 1293 844 1315 q 819 1240 844 1261 l 610 1079 q 591 1069 601 1072 q 569 1065 581 1065 z "},"Ð":{"ha":1303,"x_min":7,"x_max":1224,"o":"m 722 0 l 289 0 q 221 29 250 0 q 192 97 192 58 l 192 908 q 221 976 192 947 q 289 1006 250 1006 l 722 1006 q 871 983 800 1006 q 1003 919 942 960 q 1185 699 1125 838 q 1224 503 1224 606 q 1201 353 1224 424 q 1139 222 1179 282 q 1042 115 1099 161 q 917 40 985 68 q 823 10 872 21 q 722 0 774 0 m 386 194 l 722 194 q 814 208 771 194 q 894 247 857 222 q 960 307 931 272 q 1007 383 989 342 q 1031 503 1031 439 q 1017 595 1031 551 q 978 675 1003 639 q 842 788 926 751 q 722 811 786 811 l 386 811 l 386 194 m 104 607 l 706 607 q 774 578 746 607 q 803 510 803 550 q 774 442 803 469 q 706 414 746 414 l 104 414 q 35 442 64 414 q 7 510 7 469 q 35 578 7 550 q 104 607 64 607 z "},"ý":{"ha":1163,"x_min":74,"x_max":1079,"o":"m 982 1007 q 1051 979 1022 1007 q 1079 911 1079 951 l 1079 299 q 1065 210 1079 253 q 1028 132 1051 168 q 896 24 976 57 q 779 0 840 0 l 196 0 q 127 28 156 0 q 99 96 99 56 q 127 165 99 136 q 196 193 156 193 l 779 193 q 838 211 810 193 q 876 258 863 226 q 885 299 885 276 l 885 396 q 779 376 833 376 l 374 376 q 284 390 326 376 q 206 428 242 404 q 142 485 169 451 q 97 560 114 519 q 74 676 74 615 l 74 911 q 102 979 74 951 q 171 1007 131 1007 q 239 979 211 1007 q 267 911 267 951 l 267 676 q 285 617 267 646 q 332 579 306 589 q 374 571 350 571 l 779 571 q 838 589 814 571 q 876 635 863 604 q 885 676 885 653 l 885 911 q 913 979 885 951 q 982 1007 942 1007 m 610 1065 q 581 1072 594 1065 q 558 1090 568 1078 q 543 1131 543 1110 q 568 1183 543 1161 l 778 1344 q 818 1358 796 1358 q 871 1333 850 1358 q 885 1293 885 1315 q 860 1240 885 1261 l 650 1079 q 631 1069 642 1072 q 610 1065 621 1065 z "},"|":{"ha":346,"x_min":108,"x_max":249,"o":"m 108 -56 l 108 1076 q 129 1126 108 1106 q 178 1146 150 1146 q 228 1126 207 1146 q 249 1076 249 1106 l 249 -56 q 228 -105 249 -85 q 178 -125 207 -125 q 129 -105 150 -125 q 108 -56 108 -85 z "},"Ï":{"ha":406,"x_min":-57,"x_max":469,"o":"m 89 97 l 89 907 q 117 976 89 947 q 186 1004 146 1004 q 254 976 226 1004 q 282 907 282 947 l 282 97 q 254 28 282 57 q 186 0 226 0 q 117 28 146 0 q 89 97 89 57 m -57 1142 l -57 1171 q -28 1240 -57 1211 q 40 1268 0 1268 q 108 1240 81 1268 q 136 1171 136 1211 l 136 1142 q 108 1073 136 1101 q 40 1044 81 1044 q -28 1073 0 1044 q -57 1142 -57 1101 m 276 1142 l 276 1171 q 305 1240 276 1211 q 374 1268 333 1268 q 442 1240 414 1268 q 469 1171 469 1211 l 469 1142 q 442 1073 469 1101 q 374 1044 414 1044 q 305 1073 333 1044 q 276 1142 276 1101 z "},"=":{"ha":944,"x_min":114,"x_max":813,"o":"m 211 746 l 715 746 q 784 717 756 746 q 813 649 813 689 q 784 581 813 608 q 715 553 756 553 l 211 553 q 142 581 171 553 q 114 649 114 608 q 142 717 114 689 q 211 746 171 746 m 211 440 l 715 440 q 784 412 756 440 q 813 343 813 383 q 784 275 813 303 q 715 247 756 247 l 211 247 q 142 275 171 247 q 114 343 114 303 q 142 412 114 383 q 211 440 171 440 z "},"[":{"ha":567,"x_min":128,"x_max":461,"o":"m 374 -32 q 435 -57 410 -32 q 461 -118 461 -82 q 435 -180 461 -154 q 374 -206 410 -206 l 215 -206 q 153 -180 179 -206 q 128 -118 128 -154 l 128 1088 q 151 1147 128 1122 q 210 1174 175 1171 l 374 1174 q 435 1149 410 1174 q 461 1088 461 1124 q 435 1026 461 1051 q 374 1000 410 1000 l 301 1000 l 301 -32 l 374 -32 l 374 -32 z "},"]":{"ha":636,"x_min":128,"x_max":461,"o":"m 215 -32 l 288 -32 l 288 1000 l 215 1000 q 153 1026 179 1000 q 128 1088 128 1051 q 153 1149 128 1124 q 215 1174 179 1174 l 379 1174 q 438 1147 414 1171 q 461 1088 461 1122 l 461 -118 q 435 -180 461 -154 q 374 -206 410 -206 l 215 -206 q 153 -180 179 -206 q 128 -118 128 -154 q 153 -57 128 -82 q 215 -32 179 -32 z "},"_":{"ha":1075,"x_min":81,"x_max":1007,"o":"m 168 174 l 919 174 q 981 148 956 174 q 1007 86 1007 122 q 981 25 1007 50 q 919 0 956 0 l 168 0 q 106 25 131 0 q 81 86 81 50 q 106 148 81 122 q 168 174 131 174 z "},")":{"ha":636,"x_min":151,"x_max":490,"o":"m 206 -207 q 166 -171 181 -194 q 151 -119 151 -147 q 154 -99 151 -108 q 161 -78 157 -89 q 263 203 228 57 q 297 510 297 350 q 263 817 297 669 q 161 1099 228 964 q 151 1140 151 1122 q 166 1192 151 1168 q 206 1228 181 1215 q 249 1238 225 1238 q 300 1223 276 1238 q 335 1183 324 1208 q 450 860 410 1029 q 490 510 490 692 q 450 159 490 328 q 335 -162 410 -10 q 299 -203 322 -189 q 249 -217 276 -217 q 206 -207 225 -217 z "},"(":{"ha":636,"x_min":151,"x_max":490,"o":"m 436 -207 q 393 -217 417 -217 q 342 -203 365 -217 q 307 -162 319 -189 q 192 159 232 -10 q 151 510 151 328 q 192 860 151 692 q 307 1183 232 1029 q 342 1223 318 1208 q 393 1238 365 1238 q 436 1228 417 1238 q 476 1192 461 1215 q 490 1140 490 1168 q 481 1099 490 1122 q 379 817 414 964 q 344 510 344 669 q 379 203 344 350 q 481 -78 414 57 q 488 -99 485 -89 q 490 -119 490 -108 q 476 -171 490 -147 q 436 -207 461 -194 z "},"+":{"ha":1001,"x_min":114,"x_max":838,"o":"m 746 590 q 811 563 785 590 q 838 499 838 536 q 811 435 838 461 q 746 408 785 408 l 567 408 l 567 229 q 540 164 567 190 q 476 138 514 138 q 411 164 438 138 q 385 229 385 190 l 385 408 l 206 408 q 141 435 168 408 q 114 499 114 461 q 141 563 114 536 q 206 590 168 590 l 385 590 l 385 769 q 411 833 385 807 q 476 860 438 860 q 540 833 514 860 q 567 769 567 807 l 567 590 l 746 590 l 746 590 z "},"Ã":{"ha":1164,"x_min":43,"x_max":1033,"o":"m 844 85 l 844 667 l 204 28 q 138 0 176 0 q 102 6 119 0 q 71 28 85 13 q 49 59 56 42 q 43 94 43 76 q 71 161 43 133 l 872 963 q 939 990 900 990 q 975 983 957 990 q 1017 948 1001 972 q 1033 896 1033 924 l 1033 85 q 1006 17 1033 44 q 939 -10 978 -10 q 872 17 899 -10 q 844 85 844 44 m 607 1053 q 566 1069 586 1060 q 522 1093 546 1078 q 472 1118 499 1108 q 419 1128 446 1128 q 369 1119 392 1128 q 347 1110 360 1117 q 321 1097 333 1104 q 298 1081 308 1089 q 283 1069 288 1074 q 242 1051 265 1051 q 204 1067 222 1051 q 186 1107 186 1082 q 203 1144 186 1128 q 258 1188 226 1168 q 331 1224 289 1208 q 372 1234 350 1231 q 419 1238 394 1238 q 458 1235 439 1238 q 499 1225 478 1232 q 583 1186 539 1213 q 686 1151 632 1151 q 735 1158 711 1151 q 779 1176 758 1165 q 809 1197 797 1188 q 824 1208 821 1206 q 864 1226 840 1226 q 901 1213 886 1226 q 919 1174 918 1196 q 903 1135 921 1153 q 868 1103 903 1129 q 829 1079 853 1092 q 776 1056 806 1067 q 734 1044 757 1049 q 686 1040 711 1040 q 607 1053 642 1042 z "},"~":{"ha":1157,"x_min":122,"x_max":1038,"o":"m 647 399 q 542 450 594 415 q 506 470 522 463 q 472 483 489 478 q 413 493 443 493 q 381 490 396 493 q 350 483 365 488 q 323 474 336 479 q 299 461 310 468 q 260 435 275 447 q 243 419 246 422 q 192 397 221 397 q 144 417 167 397 q 122 467 122 436 q 142 514 122 492 q 156 526 144 515 q 186 551 167 536 q 235 583 207 567 q 301 613 264 600 q 413 631 353 631 q 461 627 436 631 q 513 615 486 624 q 618 565 567 597 q 688 531 653 542 q 747 522 721 522 q 810 532 782 522 q 838 542 825 536 q 863 554 851 547 q 901 579 886 567 q 918 594 915 592 q 968 617 939 617 q 1015 599 996 617 q 1038 549 1038 576 q 1018 501 1038 524 q 1006 488 1017 499 q 974 463 994 478 q 925 431 954 447 q 860 403 896 415 q 807 389 835 394 q 747 383 779 383 q 695 388 719 385 q 647 399 671 392 z "},"Ñ":{"ha":1157,"x_min":65,"x_max":1056,"o":"m 65 94 l 65 906 q 81 958 65 935 q 124 992 97 981 q 163 1000 142 1000 q 226 972 201 1000 l 867 332 l 867 906 q 894 973 867 946 q 961 1000 922 1000 q 1028 973 1001 1000 q 1056 906 1056 946 l 1056 104 q 1040 52 1056 76 q 997 17 1025 28 q 963 10 979 10 q 894 38 925 10 l 254 678 l 254 94 q 227 27 254 54 q 160 0 200 0 q 93 27 121 0 q 65 94 65 54 m 632 1053 q 591 1069 611 1060 q 547 1093 571 1078 q 497 1118 524 1108 q 444 1128 471 1128 q 394 1119 417 1128 q 372 1110 385 1117 q 346 1097 358 1104 q 323 1081 333 1089 q 308 1069 313 1074 q 267 1051 290 1051 q 229 1067 247 1051 q 211 1107 211 1082 q 228 1144 211 1128 q 283 1188 251 1168 q 356 1224 314 1208 q 397 1234 375 1231 q 444 1238 419 1238 q 483 1235 464 1238 q 524 1225 503 1232 q 608 1186 564 1213 q 711 1151 657 1151 q 760 1158 736 1151 q 804 1176 783 1165 q 834 1197 822 1188 q 849 1208 846 1206 q 889 1226 865 1226 q 926 1213 911 1226 q 944 1174 943 1196 q 928 1135 946 1153 q 893 1103 928 1129 q 854 1079 878 1092 q 801 1056 831 1067 q 759 1044 782 1049 q 711 1040 736 1040 q 632 1053 667 1042 z "},"ã":{"ha":1185,"x_min":72,"x_max":1061,"o":"m 768 1006 q 853 992 813 1006 q 929 956 894 979 q 993 897 965 931 q 1038 824 1021 864 q 1061 707 1061 768 l 1061 301 q 1010 133 1061 206 q 952 69 986 97 q 878 25 918 42 q 761 1 824 1 l 372 1 q 204 53 276 1 q 140 110 168 76 q 96 185 113 144 q 72 301 72 240 q 86 390 72 347 q 124 468 100 432 q 256 576 172 542 q 312 594 283 588 q 372 601 340 601 l 868 601 l 868 707 q 850 765 868 738 q 813 799 835 786 q 765 813 792 813 l 197 813 q 128 841 157 813 q 100 910 100 869 q 128 978 100 950 q 197 1006 157 1006 l 768 1006 m 372 407 q 313 389 339 407 q 280 353 293 375 q 267 306 267 331 q 285 242 267 265 q 321 208 300 221 q 368 194 342 194 l 761 194 q 820 213 794 194 q 857 253 846 231 q 868 301 868 275 l 868 407 l 372 407 m 643 1053 q 602 1069 622 1060 q 558 1093 582 1078 q 508 1118 535 1108 q 456 1128 482 1128 q 406 1119 428 1128 q 383 1110 396 1117 q 357 1097 369 1104 q 334 1081 344 1089 q 319 1069 324 1074 q 278 1051 301 1051 q 240 1067 258 1051 q 222 1107 222 1082 q 239 1144 222 1128 q 294 1188 263 1168 q 367 1224 325 1208 q 408 1234 386 1231 q 456 1238 431 1238 q 494 1235 475 1238 q 535 1225 514 1232 q 619 1186 575 1213 q 722 1151 668 1151 q 771 1158 747 1151 q 815 1176 794 1165 q 845 1197 833 1188 q 860 1208 857 1206 q 900 1226 876 1226 q 938 1213 922 1226 q 956 1174 954 1196 q 939 1135 957 1153 q 904 1103 939 1129 q 865 1079 889 1092 q 813 1056 842 1067 q 770 1044 793 1049 q 722 1040 747 1040 q 643 1053 678 1042 z "},"ñ":{"ha":1165,"x_min":78,"x_max":1086,"o":"m 892 97 l 892 503 q 878 595 892 551 q 839 676 864 639 q 703 789 788 753 q 644 807 675 800 q 582 814 614 814 l 271 814 l 271 97 q 242 28 271 57 q 174 0 214 0 q 106 28 133 0 q 78 97 78 57 l 78 910 q 106 979 78 951 q 174 1007 133 1007 l 582 1007 q 732 984 661 1007 q 864 921 803 961 q 972 824 925 881 q 1047 699 1018 768 q 1086 503 1086 606 l 1086 97 q 1058 28 1086 57 q 989 0 1029 0 q 920 28 949 0 q 892 97 892 57 m 633 1053 q 592 1069 613 1060 q 549 1093 572 1078 q 499 1118 525 1108 q 446 1128 472 1128 q 396 1119 418 1128 q 373 1110 386 1117 q 347 1097 360 1104 q 324 1081 335 1089 q 310 1069 314 1074 q 268 1051 292 1051 q 231 1067 249 1051 q 213 1107 213 1082 q 229 1144 213 1128 q 284 1188 253 1168 q 357 1224 315 1208 q 399 1234 376 1231 q 446 1238 421 1238 q 485 1235 465 1238 q 525 1225 504 1232 q 610 1186 565 1213 q 713 1151 658 1151 q 761 1158 738 1151 q 806 1176 785 1165 q 835 1197 824 1188 q 850 1208 847 1206 q 890 1226 867 1226 q 928 1213 913 1226 q 946 1174 944 1196 q 929 1135 947 1153 q 894 1103 929 1129 q 856 1079 879 1092 q 803 1056 832 1067 q 760 1044 783 1049 q 713 1040 738 1040 q 633 1053 668 1042 z "},"õ":{"ha":1139,"x_min":68,"x_max":1078,"o":"m 292 81 q 108 303 168 164 q 78 397 89 347 q 68 499 68 446 q 91 649 68 578 q 154 781 114 721 q 252 888 196 842 q 376 964 308 935 q 472 994 422 983 q 574 1004 521 1004 q 724 981 653 1004 q 856 917 794 958 q 963 820 917 876 q 1038 696 1010 764 q 1078 499 1078 603 q 1055 349 1078 419 q 992 217 1032 278 q 894 109 951 156 q 769 35 838 63 q 574 -6 676 -6 q 426 17 497 -6 q 292 81 354 39 m 400 757 q 286 619 322 706 q 263 499 263 564 q 276 406 263 450 q 315 325 290 363 q 376 260 340 289 q 453 213 411 231 q 574 189 508 189 q 666 203 622 189 q 747 242 710 217 q 813 301 783 267 q 860 378 842 336 q 883 499 883 436 q 869 592 883 547 q 831 672 856 636 q 694 786 778 750 q 574 810 636 810 q 481 796 525 810 q 400 757 436 782 m 619 1053 q 578 1069 599 1060 q 535 1093 558 1078 q 485 1118 511 1108 q 432 1128 458 1128 q 382 1119 404 1128 q 359 1110 372 1117 q 333 1097 346 1104 q 310 1081 321 1089 q 296 1069 300 1074 q 254 1051 278 1051 q 217 1067 235 1051 q 199 1107 199 1082 q 215 1144 199 1128 q 270 1188 239 1168 q 343 1224 301 1208 q 385 1234 363 1231 q 432 1238 407 1238 q 471 1235 451 1238 q 511 1225 490 1232 q 596 1186 551 1213 q 699 1151 644 1151 q 747 1158 724 1151 q 792 1176 771 1165 q 822 1197 810 1188 q 836 1208 833 1206 q 876 1226 853 1226 q 914 1213 899 1226 q 932 1174 931 1196 q 915 1135 933 1153 q 881 1103 915 1129 q 842 1079 865 1092 q 789 1056 818 1067 q 747 1044 769 1049 q 699 1040 724 1040 q 619 1053 654 1042 z "},"%":{"ha":1303,"x_min":72,"x_max":1190,"o":"m 319 13 q 283 49 296 26 q 271 96 271 71 q 285 144 271 122 l 768 976 q 805 1013 782 1000 q 853 1025 828 1025 q 900 1013 876 1025 q 936 976 924 999 q 949 929 949 954 q 935 881 949 903 l 451 47 q 415 12 438 24 q 368 0 392 0 q 319 13 342 0 m 813 40 q 876 10 842 21 q 949 0 911 0 q 999 5 976 1 q 1043 18 1022 8 q 1150 107 1110 49 q 1180 169 1169 135 q 1190 242 1190 204 q 1171 336 1190 290 q 1083 443 1144 401 q 1021 474 1056 463 q 949 485 986 485 q 854 465 900 485 q 747 378 789 439 q 706 242 706 317 q 725 147 706 193 q 813 40 753 81 m 917 290 q 949 300 931 300 q 960 299 956 300 q 971 294 965 297 q 996 274 988 288 q 1006 242 1006 258 q 1001 219 1006 229 q 981 194 994 204 q 949 185 967 185 q 926 189 935 185 q 900 210 911 194 q 890 242 890 226 q 894 264 890 253 q 917 290 903 281 m 179 581 q 314 539 240 539 q 410 558 364 539 q 515 646 478 586 q 557 781 557 707 q 538 875 557 832 q 450 982 511 940 q 315 1024 389 1024 q 221 1004 267 1024 q 114 917 156 978 q 72 781 72 856 q 92 686 72 732 q 179 581 118 622 m 283 829 q 315 839 297 839 q 338 835 326 839 q 363 814 350 829 q 372 781 372 797 q 368 758 372 768 q 347 733 363 746 q 315 724 331 724 q 293 728 301 724 q 278 736 285 731 q 267 749 272 742 q 257 781 257 765 q 261 804 257 793 q 283 829 269 819 z "},"@":{"ha":1519,"x_min":157,"x_max":1368,"o":"m 1075 0 l 451 0 q 338 22 390 0 q 242 85 285 44 q 179 181 201 128 q 157 293 157 233 l 157 700 q 179 810 157 757 q 242 906 201 864 q 338 969 285 947 q 451 992 390 992 l 1074 992 q 1282 906 1196 992 q 1346 810 1324 864 q 1368 700 1368 757 l 1368 472 q 1349 377 1368 422 q 1296 299 1329 332 q 1218 246 1263 265 q 1124 226 1174 226 l 646 226 q 551 246 596 226 q 474 299 507 265 q 422 376 440 332 q 403 471 403 421 l 403 563 q 419 649 403 608 q 465 721 436 689 q 531 773 493 753 q 614 800 569 793 l 451 800 q 378 770 408 800 q 349 700 349 740 l 349 293 q 378 221 349 250 q 451 192 408 192 l 1075 192 q 1144 163 1115 192 q 1172 94 1172 135 q 1144 28 1172 56 q 1075 0 1115 0 m 1094 419 l 1124 419 q 1161 435 1146 419 q 1176 472 1176 450 l 1176 700 q 1147 770 1176 740 q 1074 800 1117 800 l 885 800 q 967 773 929 793 q 1034 721 1006 753 q 1078 649 1063 689 q 1094 563 1094 608 l 1094 419 m 646 614 q 610 599 625 614 q 596 563 596 583 l 596 471 q 610 434 596 449 q 646 419 625 419 l 903 419 l 903 563 q 888 599 903 583 q 851 614 874 614 l 646 614 z "},"æ":{"ha":2118,"x_min":165,"x_max":1940,"o":"m 1843 193 q 1912 165 1883 193 q 1940 96 1940 136 q 1912 28 1940 56 q 1843 0 1883 0 l 1254 0 q 1147 21 1196 0 q 1057 78 1097 42 q 1016 47 1038 61 q 971 24 994 33 q 854 0 915 0 l 465 0 q 297 50 369 0 q 189 183 222 101 q 165 300 165 242 q 179 388 165 346 q 217 467 193 431 q 349 575 264 539 q 405 593 376 586 q 465 600 433 600 l 961 600 l 961 707 q 943 764 961 738 q 906 798 928 785 q 858 811 885 811 l 290 811 q 222 840 250 811 q 193 908 193 868 q 222 976 193 949 q 290 1004 250 1004 l 861 1004 q 947 991 906 1004 q 1022 954 988 978 q 1058 925 1043 940 q 1151 984 1099 964 q 1261 1004 1203 1004 l 1640 1004 q 1807 954 1732 1004 q 1917 821 1882 904 q 1940 704 1940 763 q 1926 616 1940 658 q 1889 538 1913 574 q 1782 440 1849 475 q 1640 404 1715 404 l 1154 404 l 1154 297 q 1163 260 1154 279 q 1187 227 1172 242 q 1220 203 1201 213 q 1257 193 1239 193 l 1843 193 m 1261 811 q 1202 793 1228 811 q 1163 746 1176 775 q 1158 727 1160 736 q 1154 706 1156 718 l 1154 599 l 1640 599 q 1700 617 1674 599 q 1733 653 1719 631 q 1746 700 1746 675 q 1728 764 1746 742 q 1692 798 1713 785 q 1644 811 1671 811 l 1261 811 m 854 193 q 928 224 897 194 q 961 299 958 253 l 961 406 l 465 406 q 406 388 432 406 q 373 351 386 374 q 360 304 360 329 q 378 240 360 263 q 414 206 393 219 q 461 193 435 193 l 854 193 z "},"Ø":{"ha":1356,"x_min":88,"x_max":1286,"o":"m 210 28 q 188 59 194 42 q 182 94 182 76 q 210 161 182 133 l 215 167 q 201 182 208 174 q 128 307 156 239 q 98 401 108 353 q 88 503 88 450 q 110 653 88 582 q 174 783 133 724 q 270 891 214 844 q 394 965 326 938 q 590 1006 488 1006 l 783 1006 q 932 982 863 1006 q 1003 954 968 971 l 1011 963 q 1042 983 1025 976 q 1078 989 1060 989 q 1144 963 1117 989 q 1172 896 1172 932 q 1156 842 1172 865 q 1171 822 1164 832 q 1246 699 1218 767 q 1276 605 1265 654 q 1286 503 1286 556 q 1263 353 1286 424 q 1200 222 1240 283 q 1103 115 1160 161 q 979 40 1047 68 q 885 10 933 21 q 783 0 836 0 l 590 0 q 440 22 511 0 q 367 51 401 35 l 343 28 q 312 6 329 13 q 276 0 294 0 q 241 6 258 0 q 210 28 224 13 m 783 194 q 875 208 832 194 q 956 247 918 222 q 1021 307 992 272 q 1068 383 1050 342 q 1092 503 1092 439 q 1078 595 1092 551 q 1039 675 1064 639 q 1018 703 1029 689 l 517 201 q 590 194 553 194 l 783 194 m 783 811 l 590 811 q 498 797 542 811 q 418 758 454 783 q 306 624 342 708 q 282 503 282 565 q 296 411 282 454 q 335 331 310 368 q 354 306 343 317 l 851 803 q 783 811 818 811 z "},"ø":{"ha":1228,"x_min":104,"x_max":1114,"o":"m 146 28 q 124 59 131 42 q 118 94 118 76 q 146 161 118 133 l 194 210 q 144 303 165 253 q 115 397 125 347 q 104 499 104 446 q 127 649 104 578 q 190 781 150 721 q 288 888 232 842 q 413 964 344 935 q 508 994 458 983 q 610 1004 557 1004 q 760 981 689 1004 q 892 917 831 958 l 897 913 l 947 963 q 978 983 961 976 q 1014 989 996 989 q 1081 963 1053 989 q 1108 896 1108 932 q 1081 829 1108 857 l 1029 778 q 1074 696 1056 739 q 1114 499 1114 603 q 1091 349 1114 419 q 1028 217 1068 278 q 931 109 988 156 q 806 35 874 63 q 610 -6 713 -6 q 461 17 533 -6 q 331 79 392 38 l 279 28 q 248 6 265 13 q 213 0 231 0 q 177 6 194 0 q 146 28 160 13 m 436 757 q 322 619 358 706 q 299 499 299 564 q 313 406 299 450 q 335 350 321 376 l 757 772 q 731 786 744 779 q 610 810 672 810 q 517 796 561 810 q 436 757 472 782 m 489 213 q 610 189 544 189 q 702 203 658 189 q 783 242 746 217 q 849 301 819 267 q 896 378 878 336 q 919 499 919 436 q 906 592 919 547 q 888 636 897 615 l 471 219 q 489 213 479 215 z "},"Â":{"ha":1175,"x_min":71,"x_max":1061,"o":"m 872 85 l 872 667 l 232 28 q 165 0 204 0 q 130 6 147 0 q 99 28 113 13 q 77 59 83 42 q 71 94 71 76 q 99 161 71 133 l 900 963 q 967 990 928 990 q 1003 983 985 990 q 1045 948 1029 972 q 1061 896 1061 924 l 1061 85 q 1033 17 1061 44 q 967 -10 1006 -10 q 899 17 926 -10 q 872 85 872 44 z "},"<":{"ha":1024,"x_min":178,"x_max":768,"o":"m 674 61 q 611 85 639 61 l 208 447 q 178 517 178 475 l 178 522 q 215 593 181 567 l 617 896 q 674 915 643 915 q 749 878 721 915 q 768 821 768 851 q 759 779 768 799 q 731 746 750 760 l 421 511 l 738 225 q 768 156 768 199 q 763 122 768 139 q 744 92 757 106 q 674 61 714 61 z "},">":{"ha":1022,"x_min":206,"x_max":796,"o":"m 300 61 q 229 92 260 61 q 211 122 217 106 q 206 156 206 139 q 236 225 206 199 l 553 511 l 243 746 q 215 779 224 760 q 206 821 206 799 q 225 878 206 851 q 258 906 239 897 q 300 915 278 915 q 357 896 331 915 l 758 593 q 796 522 793 567 l 796 517 q 765 447 796 475 l 363 85 q 300 61 335 61 z "},"*":{"ha":1010,"x_min":140,"x_max":839,"o":"m 810 451 q 839 397 839 432 q 826 360 839 376 q 772 332 806 332 q 733 343 750 332 l 556 468 l 556 250 q 536 203 556 222 q 489 185 517 185 q 442 203 461 185 q 424 250 424 222 l 424 468 l 246 343 q 207 332 229 332 q 153 360 174 332 q 140 397 140 376 q 169 451 140 432 l 374 596 l 169 739 q 147 763 154 749 q 140 793 140 778 q 153 831 140 814 q 177 853 163 846 q 207 860 192 860 q 246 847 229 860 l 424 722 l 424 940 q 442 987 424 968 q 489 1006 461 1006 q 536 987 517 1006 q 556 940 556 968 l 556 722 l 733 847 q 772 860 750 860 q 826 831 807 860 q 839 793 839 814 q 832 763 839 778 q 810 739 825 749 l 604 596 l 810 451 l 810 451 z "},"#":{"ha":1157,"x_min":25,"x_max":1188,"o":"m 1121 783 q 1168 764 1149 783 q 1188 717 1188 744 q 1168 670 1188 689 q 1121 651 1149 651 l 924 651 l 817 367 l 950 367 q 997 347 978 367 q 1017 300 1017 328 q 997 253 1017 272 q 950 235 978 235 l 767 235 l 711 89 q 687 58 704 69 q 650 46 669 46 q 626 50 636 46 q 595 75 607 57 q 583 113 583 93 q 588 135 583 124 l 625 235 l 379 235 l 324 89 q 299 58 317 69 q 261 46 281 46 q 238 50 250 46 q 207 74 218 57 q 196 111 196 92 q 200 135 196 124 l 238 235 l 90 235 q 44 253 63 235 q 25 300 25 272 q 44 347 25 328 q 90 367 63 367 l 288 367 l 394 651 l 261 651 q 215 670 233 651 q 196 717 196 689 q 215 764 196 744 q 261 783 233 783 l 444 783 l 500 929 q 526 960 508 949 q 563 972 543 972 q 586 968 574 972 q 617 944 606 961 q 628 907 628 926 q 624 883 628 893 l 586 783 l 833 783 l 889 929 q 913 960 896 949 q 950 972 931 972 q 974 968 961 972 q 1005 943 993 961 q 1017 906 1017 925 q 1013 883 1017 893 l 974 783 l 1121 783 m 783 651 l 536 651 l 429 367 l 675 367 l 783 651 z "},"Ô":{"ha":1356,"x_min":85,"x_max":1283,"o":"m 588 0 q 390 40 482 0 q 231 148 299 79 q 124 308 163 217 q 85 503 85 400 q 124 700 85 608 q 233 860 164 792 q 393 967 301 928 q 588 1006 485 1006 l 781 1006 q 974 967 882 1006 q 1134 860 1065 928 q 1243 700 1203 792 q 1283 503 1283 608 q 1244 308 1283 399 q 1136 148 1204 217 q 976 40 1068 79 q 781 0 885 0 l 588 0 m 781 194 q 898 218 842 194 q 997 283 954 242 q 1064 380 1039 324 q 1089 503 1089 436 q 1065 621 1089 565 q 1000 719 1042 676 q 902 786 958 761 q 781 811 846 811 l 588 811 q 471 788 526 811 q 373 725 415 765 q 305 628 331 685 q 279 503 279 571 q 303 385 279 442 q 367 287 326 329 q 465 219 408 244 q 588 194 521 194 l 781 194 m 839 1050 q 792 1069 814 1050 l 678 1185 l 564 1071 q 517 1051 544 1051 q 471 1071 489 1051 q 451 1117 451 1089 q 471 1164 451 1144 l 631 1325 q 678 1344 650 1344 q 725 1325 706 1344 l 886 1164 q 904 1117 904 1144 q 900 1092 904 1104 q 886 1069 896 1079 q 839 1050 867 1050 z "},"Û":{"ha":1157,"x_min":65,"x_max":1074,"o":"m 65 504 l 65 910 q 94 978 65 950 q 163 1007 122 1007 q 231 978 203 1007 q 260 910 260 950 l 260 504 q 284 384 260 440 q 351 285 308 328 q 449 219 393 243 q 569 194 506 194 q 690 219 633 194 q 789 285 747 243 q 856 384 831 328 q 881 504 881 440 l 881 910 q 908 978 881 950 q 976 1007 936 1007 q 1045 978 1017 1007 q 1074 910 1074 950 l 1074 504 q 1034 308 1074 400 q 926 148 994 217 q 766 40 858 79 q 569 0 674 0 q 374 40 465 0 q 213 148 282 79 q 105 308 144 217 q 65 504 65 400 m 739 1050 q 692 1069 714 1050 l 578 1185 l 464 1071 q 417 1051 444 1051 q 371 1071 389 1051 q 351 1117 351 1089 q 371 1164 351 1144 l 531 1325 q 578 1344 550 1344 q 625 1325 606 1344 l 786 1164 q 804 1117 804 1144 q 800 1092 804 1104 q 786 1069 796 1079 q 739 1050 767 1050 z "},"\\":{"ha":1157,"x_min":65,"x_max":1056,"o":"m 1028 28 q 997 6 1014 13 q 961 0 979 0 q 926 6 943 0 q 894 28 908 13 l 93 829 q 65 896 65 857 q 93 963 65 932 q 160 989 121 989 q 195 983 178 989 q 226 963 213 976 l 1028 161 q 1056 94 1056 133 q 1049 59 1056 76 q 1028 28 1043 42 z "},"–":{"ha":1088,"x_min":213,"x_max":911,"o":"m 310 574 l 814 574 q 883 545 854 574 q 911 476 911 517 q 883 408 911 436 q 814 381 854 381 l 310 381 q 241 408 269 381 q 213 476 213 436 q 241 545 213 517 q 310 574 269 574 z "},"—":{"ha":1399,"x_min":213,"x_max":1147,"o":"m 310 574 l 1050 574 q 1119 545 1090 574 q 1147 476 1147 517 q 1119 408 1147 436 q 1050 381 1090 381 l 310 381 q 241 408 269 381 q 213 476 213 436 q 241 545 213 517 q 310 574 269 574 z "},"•":{"ha":925,"x_min":250,"x_max":675,"o":"m 463 228 q 380 244 418 228 q 313 290 342 261 q 267 356 283 318 q 250 439 250 394 q 267 521 250 482 q 313 589 283 560 q 380 635 342 618 q 463 651 418 651 q 544 635 506 651 q 613 589 583 618 q 658 521 642 560 q 675 439 675 482 q 658 356 675 394 q 613 290 642 318 q 544 244 583 261 q 463 228 506 228 z "},"ê":{"ha":1150,"x_min":89,"x_max":1068,"o":"m 382 0 q 268 24 321 0 q 175 88 215 47 q 112 183 135 129 q 89 299 89 238 l 89 704 q 139 872 89 799 q 248 969 182 935 q 389 1004 314 1004 l 768 1004 q 885 981 831 1004 q 981 917 940 957 q 1045 822 1022 876 q 1068 704 1068 767 q 1045 592 1068 646 q 983 496 1022 538 q 888 429 943 454 q 768 404 832 404 l 282 404 l 282 299 q 300 240 282 267 q 337 206 315 219 q 385 193 358 193 l 971 193 q 1040 165 1011 193 q 1068 96 1068 136 q 1040 28 1068 56 q 971 0 1011 0 l 382 0 m 768 599 q 811 608 792 599 q 844 631 831 617 q 866 664 858 646 q 874 700 874 682 q 856 764 874 742 q 819 798 840 785 q 772 811 799 811 l 389 811 q 313 779 343 811 q 282 704 282 747 l 282 599 l 768 599 m 736 1050 q 689 1069 711 1050 l 575 1185 l 461 1071 q 414 1051 442 1051 q 368 1071 386 1051 q 349 1117 349 1089 q 368 1164 349 1144 l 528 1325 q 575 1344 547 1344 q 622 1325 603 1344 l 783 1164 q 801 1117 801 1144 q 797 1092 801 1104 q 783 1069 793 1079 q 736 1050 764 1050 z "},"î":{"ha":406,"x_min":-22,"x_max":431,"o":"m 89 97 l 89 907 q 117 976 89 947 q 186 1004 146 1004 q 254 976 226 1004 q 282 907 282 947 l 282 97 q 254 28 282 57 q 186 0 226 0 q 117 28 146 0 q 89 97 89 57 m 365 1050 q 318 1069 340 1050 l 204 1185 l 90 1071 q 43 1051 71 1051 q -3 1071 15 1051 q -22 1117 -22 1089 q -3 1164 -22 1144 l 157 1325 q 204 1344 176 1344 q 251 1325 232 1344 l 413 1164 q 431 1117 431 1144 q 426 1092 431 1104 q 413 1069 422 1079 q 365 1050 393 1050 z "},"Ê":{"ha":1074,"x_min":100,"x_max":992,"o":"m 293 300 q 323 225 293 256 q 399 194 353 194 l 894 194 q 963 166 935 194 q 992 97 992 138 q 963 28 992 57 q 894 0 935 0 l 399 0 q 285 23 339 0 q 190 86 231 46 q 124 181 149 126 q 100 300 100 236 l 100 706 q 124 824 100 769 q 190 919 149 879 q 285 983 231 960 q 399 1006 339 1006 l 894 1006 q 963 977 935 1006 q 992 908 992 949 q 963 840 992 868 q 894 811 935 811 l 399 811 q 323 780 353 811 q 293 706 293 749 l 293 599 l 889 599 q 958 571 929 599 q 986 503 986 543 q 958 434 986 463 q 889 406 929 406 l 293 406 l 293 300 m 697 1050 q 650 1069 672 1050 l 536 1185 l 422 1071 q 375 1051 403 1051 q 329 1071 347 1051 q 310 1117 310 1089 q 329 1164 310 1144 l 489 1325 q 536 1344 508 1344 q 583 1325 564 1344 l 744 1164 q 763 1117 763 1144 q 758 1092 763 1104 q 744 1069 754 1079 q 697 1050 725 1050 z "},"Î":{"ha":447,"x_min":-1,"x_max":451,"o":"m 132 97 l 132 907 q 160 976 132 947 q 229 1004 189 1004 q 297 976 269 1004 q 325 907 325 947 l 325 97 q 297 28 325 57 q 229 0 269 0 q 160 28 189 0 q 132 97 132 57 m 386 1050 q 339 1069 361 1050 l 225 1185 l 111 1071 q 64 1051 92 1051 q 18 1071 36 1051 q -1 1117 -1 1089 q 18 1164 -1 1144 l 178 1325 q 225 1344 197 1344 q 272 1325 253 1344 l 433 1164 q 451 1117 451 1144 q 447 1092 451 1104 q 433 1069 443 1079 q 386 1050 414 1050 z "},"Õ":{"ha":1356,"x_min":85,"x_max":1283,"o":"m 588 0 q 390 40 482 0 q 231 148 299 79 q 124 308 163 217 q 85 503 85 400 q 124 700 85 608 q 233 860 164 792 q 393 967 301 928 q 588 1006 485 1006 l 781 1006 q 974 967 882 1006 q 1134 860 1065 928 q 1243 700 1203 792 q 1283 503 1283 608 q 1244 308 1283 399 q 1136 148 1204 217 q 976 40 1068 79 q 781 0 885 0 l 588 0 m 781 194 q 898 218 842 194 q 997 283 954 242 q 1064 380 1039 324 q 1089 503 1089 436 q 1065 621 1089 565 q 1000 719 1042 676 q 902 786 958 761 q 781 811 846 811 l 588 811 q 471 788 526 811 q 373 725 415 765 q 305 628 331 685 q 279 503 279 571 q 303 385 279 442 q 367 287 326 329 q 465 219 408 244 q 588 194 521 194 l 781 194 m 731 1053 q 690 1069 710 1060 q 646 1093 669 1078 q 596 1118 622 1108 q 543 1128 569 1128 q 493 1119 515 1128 q 470 1110 483 1117 q 444 1097 457 1104 q 422 1081 432 1089 q 407 1069 411 1074 q 365 1051 389 1051 q 328 1067 346 1051 q 310 1107 310 1082 q 326 1144 310 1128 q 381 1188 350 1168 q 454 1224 413 1208 q 496 1234 474 1231 q 543 1238 518 1238 q 582 1235 563 1238 q 622 1225 601 1232 q 707 1186 663 1213 q 810 1151 756 1151 q 858 1158 835 1151 q 903 1176 882 1165 q 933 1197 921 1188 q 947 1208 944 1206 q 988 1226 964 1226 q 1025 1213 1010 1226 q 1043 1174 1042 1196 q 1026 1135 1044 1153 q 992 1103 1026 1129 q 953 1079 976 1092 q 900 1056 929 1067 q 858 1044 881 1049 q 810 1040 835 1040 q 731 1053 765 1042 z "},"â":{"ha":1200,"x_min":72,"x_max":1061,"o":"m 768 1006 q 853 992 813 1006 q 929 956 894 979 q 993 897 965 931 q 1038 824 1021 864 q 1061 707 1061 768 l 1061 301 q 1010 133 1061 206 q 952 69 986 97 q 878 25 918 42 q 761 1 824 1 l 372 1 q 204 53 276 1 q 140 110 168 76 q 96 185 113 144 q 72 301 72 240 q 86 390 72 347 q 124 468 100 432 q 256 576 172 542 q 312 594 283 588 q 372 601 340 601 l 868 601 l 868 707 q 850 765 868 738 q 813 799 835 786 q 765 813 792 813 l 197 813 q 128 841 157 813 q 100 910 100 869 q 128 978 100 950 q 197 1006 157 1006 l 768 1006 m 372 407 q 313 389 339 407 q 280 353 293 375 q 267 306 267 331 q 285 242 267 265 q 321 208 300 221 q 368 194 342 194 l 761 194 q 820 213 794 194 q 857 253 846 231 q 868 301 868 275 l 868 407 l 372 407 m 761 1050 q 714 1069 736 1050 l 600 1185 l 486 1071 q 439 1051 467 1051 q 393 1071 411 1051 q 374 1117 374 1089 q 393 1164 374 1144 l 553 1325 q 600 1344 572 1344 q 647 1325 628 1344 l 808 1164 q 826 1117 826 1144 q 822 1092 826 1104 q 808 1069 818 1079 q 761 1050 789 1050 z "},"ô":{"ha":1228,"x_min":104,"x_max":1114,"o":"m 328 81 q 144 303 204 164 q 115 397 125 347 q 104 499 104 446 q 127 649 104 578 q 190 781 150 721 q 288 888 232 842 q 413 964 344 935 q 508 994 458 983 q 610 1004 557 1004 q 760 981 689 1004 q 892 917 831 958 q 999 820 953 876 q 1074 696 1046 764 q 1114 499 1114 603 q 1091 349 1114 419 q 1028 217 1068 278 q 931 109 988 156 q 806 35 874 63 q 610 -6 713 -6 q 462 17 533 -6 q 328 81 390 39 m 436 757 q 322 619 358 706 q 299 499 299 564 q 313 406 299 450 q 351 325 326 363 q 412 260 376 289 q 489 213 447 231 q 610 189 544 189 q 702 203 658 189 q 783 242 746 217 q 849 301 819 267 q 896 378 878 336 q 919 499 919 436 q 906 592 919 547 q 867 672 892 636 q 731 786 814 750 q 610 810 672 810 q 517 796 561 810 q 436 757 472 782 m 775 1050 q 728 1069 750 1050 l 614 1185 l 500 1071 q 453 1051 481 1051 q 407 1071 425 1051 q 388 1117 388 1089 q 407 1164 388 1144 l 567 1325 q 614 1344 586 1344 q 661 1325 642 1344 l 822 1164 q 840 1117 840 1144 q 836 1092 840 1104 q 822 1069 832 1079 q 775 1050 803 1050 z "},"û":{"ha":1235,"x_min":76,"x_max":1085,"o":"m 271 910 l 271 504 q 285 412 271 456 q 324 331 299 368 q 460 218 375 254 q 518 200 488 207 q 581 193 549 193 l 892 193 l 892 910 q 920 978 892 950 q 989 1007 949 1007 q 1057 978 1029 1007 q 1085 910 1085 950 l 1085 97 q 1057 28 1085 56 q 989 0 1029 0 l 581 0 q 431 23 501 0 q 299 86 360 46 q 191 183 238 126 q 115 308 144 239 q 76 504 76 401 l 76 910 q 105 978 76 950 q 174 1007 133 1007 q 242 978 214 1007 q 271 910 271 950 m 778 1050 q 731 1069 753 1050 l 617 1185 l 503 1071 q 456 1051 483 1051 q 410 1071 428 1051 q 390 1117 390 1089 q 410 1164 390 1144 l 569 1325 q 617 1344 589 1344 q 664 1325 644 1344 l 825 1164 q 843 1117 843 1144 q 839 1092 843 1104 q 825 1069 835 1079 q 778 1050 806 1050 z "}}}
